<mxfile host="app.diagrams.net" modified="2024-06-03T12:44:54.546Z" agent="Mozilla/5.0 (Macintosh; Intel Mac OS X 10_15_7) AppleWebKit/537.36 (KHTML, like Gecko) Chrome/125.0.0.0 Safari/537.36" etag="r_amJN11YsPT9DYn53Sa" version="24.4.9" type="github" pages="12">
  <diagram name="join()" id="1V3KP1SCWV8kPv5yOCxo">
    <mxGraphModel dx="1185" dy="674" grid="0" gridSize="10" guides="1" tooltips="1" connect="1" arrows="1" fold="1" page="1" pageScale="1" pageWidth="1169" pageHeight="1654" math="0" shadow="0">
      <root>
        <mxCell id="0" />
        <mxCell id="1" parent="0" />
        <mxCell id="NZEd004sxIDb9vNdu7oz-4" value="while(true)" style="rounded=1;whiteSpace=wrap;html=1;" parent="1" vertex="1">
          <mxGeometry x="367" y="159" width="120" height="60" as="geometry" />
        </mxCell>
        <mxCell id="NZEd004sxIDb9vNdu7oz-8" style="rounded=0;orthogonalLoop=1;jettySize=auto;html=1;exitX=0;exitY=0.5;exitDx=0;exitDy=0;exitPerimeter=0;edgeStyle=orthogonalEdgeStyle;" parent="1" source="NZEd004sxIDb9vNdu7oz-5" target="NZEd004sxIDb9vNdu7oz-7" edge="1">
          <mxGeometry relative="1" as="geometry" />
        </mxCell>
        <mxCell id="NZEd004sxIDb9vNdu7oz-10" style="rounded=0;orthogonalLoop=1;jettySize=auto;html=1;exitX=1;exitY=0.5;exitDx=0;exitDy=0;exitPerimeter=0;edgeStyle=orthogonalEdgeStyle;" parent="1" source="NZEd004sxIDb9vNdu7oz-5" target="NZEd004sxIDb9vNdu7oz-9" edge="1">
          <mxGeometry relative="1" as="geometry" />
        </mxCell>
        <mxCell id="NZEd004sxIDb9vNdu7oz-5" value="是否被打断？" style="strokeWidth=1;html=1;shape=mxgraph.flowchart.decision;whiteSpace=wrap;" parent="1" vertex="1">
          <mxGeometry x="365" y="260" width="124" height="70" as="geometry" />
        </mxCell>
        <mxCell id="NZEd004sxIDb9vNdu7oz-6" style="rounded=0;orthogonalLoop=1;jettySize=auto;html=1;exitX=0.5;exitY=1;exitDx=0;exitDy=0;entryX=0.5;entryY=0;entryDx=0;entryDy=0;entryPerimeter=0;" parent="1" source="NZEd004sxIDb9vNdu7oz-4" target="NZEd004sxIDb9vNdu7oz-5" edge="1">
          <mxGeometry relative="1" as="geometry" />
        </mxCell>
        <mxCell id="NZEd004sxIDb9vNdu7oz-7" value="收尾工作" style="rounded=1;whiteSpace=wrap;html=1;" parent="1" vertex="1">
          <mxGeometry x="264.5" y="349" width="120" height="60" as="geometry" />
        </mxCell>
        <mxCell id="NZEd004sxIDb9vNdu7oz-16" value="" style="edgeStyle=orthogonalEdgeStyle;rounded=0;orthogonalLoop=1;jettySize=auto;html=1;" parent="1" source="NZEd004sxIDb9vNdu7oz-9" target="NZEd004sxIDb9vNdu7oz-15" edge="1">
          <mxGeometry relative="1" as="geometry" />
        </mxCell>
        <mxCell id="NZEd004sxIDb9vNdu7oz-9" value="休息一会儿" style="rounded=1;whiteSpace=wrap;html=1;" parent="1" vertex="1">
          <mxGeometry x="465" y="461" width="120" height="60" as="geometry" />
        </mxCell>
        <mxCell id="NZEd004sxIDb9vNdu7oz-11" value="结束循环" style="strokeWidth=1;html=1;shape=mxgraph.flowchart.terminator;whiteSpace=wrap;" parent="1" vertex="1">
          <mxGeometry x="274.5" y="461" width="100" height="60" as="geometry" />
        </mxCell>
        <mxCell id="NZEd004sxIDb9vNdu7oz-12" style="edgeStyle=orthogonalEdgeStyle;rounded=0;orthogonalLoop=1;jettySize=auto;html=1;entryX=0.5;entryY=0;entryDx=0;entryDy=0;entryPerimeter=0;" parent="1" source="NZEd004sxIDb9vNdu7oz-7" target="NZEd004sxIDb9vNdu7oz-11" edge="1">
          <mxGeometry relative="1" as="geometry" />
        </mxCell>
        <mxCell id="NZEd004sxIDb9vNdu7oz-17" style="edgeStyle=orthogonalEdgeStyle;rounded=0;orthogonalLoop=1;jettySize=auto;html=1;entryX=1;entryY=0.5;entryDx=0;entryDy=0;" parent="1" source="NZEd004sxIDb9vNdu7oz-15" target="NZEd004sxIDb9vNdu7oz-4" edge="1">
          <mxGeometry relative="1" as="geometry">
            <Array as="points">
              <mxPoint x="699" y="189" />
            </Array>
          </mxGeometry>
        </mxCell>
        <mxCell id="NZEd004sxIDb9vNdu7oz-18" value="无异常" style="edgeLabel;html=1;align=center;verticalAlign=middle;resizable=0;points=[];" parent="NZEd004sxIDb9vNdu7oz-17" vertex="1" connectable="0">
          <mxGeometry x="-0.4252" y="1" relative="1" as="geometry">
            <mxPoint as="offset" />
          </mxGeometry>
        </mxCell>
        <mxCell id="NZEd004sxIDb9vNdu7oz-20" style="edgeStyle=orthogonalEdgeStyle;rounded=0;orthogonalLoop=1;jettySize=auto;html=1;" parent="1" source="NZEd004sxIDb9vNdu7oz-15" edge="1">
          <mxGeometry relative="1" as="geometry">
            <mxPoint x="824.1379310344828" y="426.62068965517255" as="targetPoint" />
          </mxGeometry>
        </mxCell>
        <mxCell id="NZEd004sxIDb9vNdu7oz-22" value="有异常" style="edgeLabel;html=1;align=center;verticalAlign=middle;resizable=0;points=[];" parent="NZEd004sxIDb9vNdu7oz-20" vertex="1" connectable="0">
          <mxGeometry x="0.3212" y="-1" relative="1" as="geometry">
            <mxPoint as="offset" />
          </mxGeometry>
        </mxCell>
        <mxCell id="NZEd004sxIDb9vNdu7oz-15" value="是否抛出打断异常？" style="strokeWidth=1;html=1;shape=mxgraph.flowchart.decision;whiteSpace=wrap;" parent="1" vertex="1">
          <mxGeometry x="637" y="456" width="124" height="70" as="geometry" />
        </mxCell>
        <mxCell id="NZEd004sxIDb9vNdu7oz-21" style="edgeStyle=orthogonalEdgeStyle;rounded=0;orthogonalLoop=1;jettySize=auto;html=1;entryX=1;entryY=0.5;entryDx=0;entryDy=0;" parent="1" source="NZEd004sxIDb9vNdu7oz-19" target="NZEd004sxIDb9vNdu7oz-4" edge="1">
          <mxGeometry relative="1" as="geometry">
            <Array as="points">
              <mxPoint x="821" y="189" />
            </Array>
          </mxGeometry>
        </mxCell>
        <mxCell id="NZEd004sxIDb9vNdu7oz-19" value="设置打断标记" style="rounded=1;whiteSpace=wrap;html=1;" parent="1" vertex="1">
          <mxGeometry x="761" y="365" width="120" height="60" as="geometry" />
        </mxCell>
      </root>
    </mxGraphModel>
  </diagram>
  <diagram id="PVNSbkn1NOxQgm3fCDCZ" name="OS线程">
    <mxGraphModel grid="0" page="1" gridSize="10" guides="1" tooltips="1" connect="1" arrows="1" fold="1" pageScale="1" pageWidth="1169" pageHeight="1654" math="0" shadow="0">
      <root>
        <mxCell id="0" />
        <mxCell id="1" parent="0" />
        <mxCell id="ibxqNXm0Q92hEJX4QjCi-5" style="edgeStyle=orthogonalEdgeStyle;curved=1;rounded=0;orthogonalLoop=1;jettySize=auto;html=1;exitX=1;exitY=0.25;exitDx=0;exitDy=0;entryX=0;entryY=0.5;entryDx=0;entryDy=0;" edge="1" parent="1" source="FmXA30j9jdL4BYsZwHf5-3" target="ibxqNXm0Q92hEJX4QjCi-1">
          <mxGeometry relative="1" as="geometry" />
        </mxCell>
        <mxCell id="FmXA30j9jdL4BYsZwHf5-3" value="New" style="rounded=1;whiteSpace=wrap;html=1;fillColor=#dae8fc;strokeColor=#6c8ebf;" vertex="1" parent="1">
          <mxGeometry x="182" y="426" width="73" height="38" as="geometry" />
        </mxCell>
        <mxCell id="ibxqNXm0Q92hEJX4QjCi-7" style="edgeStyle=orthogonalEdgeStyle;curved=1;rounded=0;orthogonalLoop=1;jettySize=auto;html=1;exitX=0.5;exitY=0;exitDx=0;exitDy=0;entryX=0.5;entryY=0;entryDx=0;entryDy=0;" edge="1" parent="1" source="ibxqNXm0Q92hEJX4QjCi-1" target="ibxqNXm0Q92hEJX4QjCi-2">
          <mxGeometry relative="1" as="geometry" />
        </mxCell>
        <mxCell id="ibxqNXm0Q92hEJX4QjCi-1" value="Ready" style="rounded=1;whiteSpace=wrap;html=1;fillColor=#f5f5f5;fontColor=#333333;strokeColor=#666666;" vertex="1" parent="1">
          <mxGeometry x="310" y="361" width="73" height="38" as="geometry" />
        </mxCell>
        <mxCell id="ibxqNXm0Q92hEJX4QjCi-9" style="edgeStyle=orthogonalEdgeStyle;curved=1;rounded=0;orthogonalLoop=1;jettySize=auto;html=1;exitX=0.5;exitY=1;exitDx=0;exitDy=0;entryX=0.5;entryY=1;entryDx=0;entryDy=0;" edge="1" parent="1" source="ibxqNXm0Q92hEJX4QjCi-2" target="ibxqNXm0Q92hEJX4QjCi-1">
          <mxGeometry relative="1" as="geometry" />
        </mxCell>
        <mxCell id="ibxqNXm0Q92hEJX4QjCi-10" style="edgeStyle=orthogonalEdgeStyle;curved=1;rounded=0;orthogonalLoop=1;jettySize=auto;html=1;exitX=0.75;exitY=1;exitDx=0;exitDy=0;entryX=1;entryY=0.5;entryDx=0;entryDy=0;" edge="1" parent="1" source="ibxqNXm0Q92hEJX4QjCi-2" target="ibxqNXm0Q92hEJX4QjCi-3">
          <mxGeometry relative="1" as="geometry" />
        </mxCell>
        <mxCell id="ibxqNXm0Q92hEJX4QjCi-12" style="edgeStyle=orthogonalEdgeStyle;curved=1;rounded=0;orthogonalLoop=1;jettySize=auto;html=1;exitX=1;exitY=0.5;exitDx=0;exitDy=0;entryX=0;entryY=0.5;entryDx=0;entryDy=0;" edge="1" parent="1" source="ibxqNXm0Q92hEJX4QjCi-2" target="ibxqNXm0Q92hEJX4QjCi-4">
          <mxGeometry relative="1" as="geometry" />
        </mxCell>
        <mxCell id="ibxqNXm0Q92hEJX4QjCi-2" value="Runing" style="rounded=1;whiteSpace=wrap;html=1;fillColor=#d5e8d4;strokeColor=#82b366;" vertex="1" parent="1">
          <mxGeometry x="452" y="361" width="73" height="38" as="geometry" />
        </mxCell>
        <mxCell id="ibxqNXm0Q92hEJX4QjCi-11" style="edgeStyle=orthogonalEdgeStyle;curved=1;rounded=0;orthogonalLoop=1;jettySize=auto;html=1;exitX=0;exitY=0.5;exitDx=0;exitDy=0;entryX=0.25;entryY=1;entryDx=0;entryDy=0;" edge="1" parent="1" source="ibxqNXm0Q92hEJX4QjCi-3" target="ibxqNXm0Q92hEJX4QjCi-1">
          <mxGeometry relative="1" as="geometry" />
        </mxCell>
        <mxCell id="ibxqNXm0Q92hEJX4QjCi-3" value="Waiting" style="rounded=1;whiteSpace=wrap;html=1;fillColor=#ffe6cc;strokeColor=#d79b00;" vertex="1" parent="1">
          <mxGeometry x="379" y="467" width="73" height="38" as="geometry" />
        </mxCell>
        <mxCell id="ibxqNXm0Q92hEJX4QjCi-4" value="Terminate" style="rounded=1;whiteSpace=wrap;html=1;fillColor=#f8cecc;strokeColor=#b85450;" vertex="1" parent="1">
          <mxGeometry x="576" y="426" width="73" height="38" as="geometry" />
        </mxCell>
      </root>
    </mxGraphModel>
  </diagram>
  <diagram id="xMxGrsC7GhkVJynPmUS6" name="JVM线程">
    <mxGraphModel dx="988" dy="562" grid="0" gridSize="10" guides="1" tooltips="1" connect="1" arrows="1" fold="1" page="1" pageScale="1" pageWidth="1169" pageHeight="1654" math="0" shadow="0">
      <root>
        <mxCell id="0" />
        <mxCell id="1" parent="0" />
        <mxCell id="bEQPRtBtmHfOsYJVfjAv-1" style="edgeStyle=orthogonalEdgeStyle;curved=1;rounded=0;orthogonalLoop=1;jettySize=auto;html=1;entryX=0.5;entryY=0;entryDx=0;entryDy=0;" parent="1" source="uHQ0ieIAPgb02AOEPANn-1" target="uHQ0ieIAPgb02AOEPANn-2" edge="1">
          <mxGeometry relative="1" as="geometry" />
        </mxCell>
        <mxCell id="bEQPRtBtmHfOsYJVfjAv-21" value="1" style="edgeLabel;html=1;align=center;verticalAlign=middle;resizable=0;points=[];" parent="bEQPRtBtmHfOsYJVfjAv-1" vertex="1" connectable="0">
          <mxGeometry x="-0.4774" y="2" relative="1" as="geometry">
            <mxPoint as="offset" />
          </mxGeometry>
        </mxCell>
        <mxCell id="uHQ0ieIAPgb02AOEPANn-1" value="NEW" style="rounded=1;whiteSpace=wrap;html=1;fillColor=#d5e8d4;strokeColor=#82b366;" parent="1" vertex="1">
          <mxGeometry x="470" y="216" width="120" height="60" as="geometry" />
        </mxCell>
        <mxCell id="bEQPRtBtmHfOsYJVfjAv-2" style="edgeStyle=orthogonalEdgeStyle;curved=1;rounded=0;orthogonalLoop=1;jettySize=auto;html=1;" parent="1" source="uHQ0ieIAPgb02AOEPANn-2" target="uHQ0ieIAPgb02AOEPANn-6" edge="1">
          <mxGeometry relative="1" as="geometry" />
        </mxCell>
        <mxCell id="bEQPRtBtmHfOsYJVfjAv-22" value="2" style="edgeLabel;html=1;align=center;verticalAlign=middle;resizable=0;points=[];" parent="bEQPRtBtmHfOsYJVfjAv-2" vertex="1" connectable="0">
          <mxGeometry x="0.0732" relative="1" as="geometry">
            <mxPoint as="offset" />
          </mxGeometry>
        </mxCell>
        <mxCell id="bEQPRtBtmHfOsYJVfjAv-13" style="edgeStyle=orthogonalEdgeStyle;curved=1;rounded=0;orthogonalLoop=1;jettySize=auto;html=1;exitX=1;exitY=0;exitDx=0;exitDy=0;entryX=0;entryY=0.25;entryDx=0;entryDy=0;" parent="1" source="uHQ0ieIAPgb02AOEPANn-2" target="uHQ0ieIAPgb02AOEPANn-5" edge="1">
          <mxGeometry relative="1" as="geometry" />
        </mxCell>
        <mxCell id="bEQPRtBtmHfOsYJVfjAv-25" value="5" style="edgeLabel;html=1;align=center;verticalAlign=middle;resizable=0;points=[];" parent="bEQPRtBtmHfOsYJVfjAv-13" vertex="1" connectable="0">
          <mxGeometry x="0.2451" y="-10" relative="1" as="geometry">
            <mxPoint as="offset" />
          </mxGeometry>
        </mxCell>
        <mxCell id="bEQPRtBtmHfOsYJVfjAv-14" style="edgeStyle=orthogonalEdgeStyle;curved=1;rounded=0;orthogonalLoop=1;jettySize=auto;html=1;exitX=0;exitY=0.25;exitDx=0;exitDy=0;entryX=1;entryY=0.25;entryDx=0;entryDy=0;" parent="1" source="uHQ0ieIAPgb02AOEPANn-2" target="uHQ0ieIAPgb02AOEPANn-3" edge="1">
          <mxGeometry relative="1" as="geometry" />
        </mxCell>
        <mxCell id="bEQPRtBtmHfOsYJVfjAv-23" value="3" style="edgeLabel;html=1;align=center;verticalAlign=middle;resizable=0;points=[];" parent="bEQPRtBtmHfOsYJVfjAv-14" vertex="1" connectable="0">
          <mxGeometry x="-0.3484" y="2" relative="1" as="geometry">
            <mxPoint as="offset" />
          </mxGeometry>
        </mxCell>
        <mxCell id="bEQPRtBtmHfOsYJVfjAv-16" style="edgeStyle=orthogonalEdgeStyle;curved=1;rounded=0;orthogonalLoop=1;jettySize=auto;html=1;exitX=1;exitY=0.75;exitDx=0;exitDy=0;entryX=0.5;entryY=0;entryDx=0;entryDy=0;" parent="1" source="uHQ0ieIAPgb02AOEPANn-2" target="uHQ0ieIAPgb02AOEPANn-4" edge="1">
          <mxGeometry relative="1" as="geometry" />
        </mxCell>
        <mxCell id="bEQPRtBtmHfOsYJVfjAv-27" value="7" style="edgeLabel;html=1;align=center;verticalAlign=middle;resizable=0;points=[];" parent="bEQPRtBtmHfOsYJVfjAv-16" vertex="1" connectable="0">
          <mxGeometry x="-0.1437" y="-7" relative="1" as="geometry">
            <mxPoint as="offset" />
          </mxGeometry>
        </mxCell>
        <mxCell id="uHQ0ieIAPgb02AOEPANn-2" value="RUNNABLE" style="rounded=1;whiteSpace=wrap;html=1;fillColor=#dae8fc;strokeColor=#6c8ebf;" parent="1" vertex="1">
          <mxGeometry x="470" y="358" width="120" height="60" as="geometry" />
        </mxCell>
        <mxCell id="bEQPRtBtmHfOsYJVfjAv-15" style="edgeStyle=orthogonalEdgeStyle;curved=1;rounded=0;orthogonalLoop=1;jettySize=auto;html=1;exitX=1;exitY=0.75;exitDx=0;exitDy=0;entryX=0;entryY=0.75;entryDx=0;entryDy=0;" parent="1" source="uHQ0ieIAPgb02AOEPANn-3" target="uHQ0ieIAPgb02AOEPANn-2" edge="1">
          <mxGeometry relative="1" as="geometry" />
        </mxCell>
        <mxCell id="bEQPRtBtmHfOsYJVfjAv-24" value="4" style="edgeLabel;html=1;align=center;verticalAlign=middle;resizable=0;points=[];" parent="bEQPRtBtmHfOsYJVfjAv-15" vertex="1" connectable="0">
          <mxGeometry x="0.1922" y="1" relative="1" as="geometry">
            <mxPoint as="offset" />
          </mxGeometry>
        </mxCell>
        <mxCell id="uHQ0ieIAPgb02AOEPANn-3" value="BLOCKED" style="rounded=1;whiteSpace=wrap;html=1;fillColor=#e1d5e7;strokeColor=#9673a6;" parent="1" vertex="1">
          <mxGeometry x="211" y="358" width="120" height="60" as="geometry" />
        </mxCell>
        <mxCell id="uHQ0ieIAPgb02AOEPANn-4" value="WAITING" style="rounded=1;whiteSpace=wrap;html=1;fillColor=#ffe6cc;strokeColor=#d79b00;" parent="1" vertex="1">
          <mxGeometry x="769" y="472" width="120" height="60" as="geometry" />
        </mxCell>
        <mxCell id="bEQPRtBtmHfOsYJVfjAv-19" style="edgeStyle=orthogonalEdgeStyle;curved=1;rounded=0;orthogonalLoop=1;jettySize=auto;html=1;exitX=0.25;exitY=1;exitDx=0;exitDy=0;entryX=1;entryY=0.25;entryDx=0;entryDy=0;" parent="1" source="uHQ0ieIAPgb02AOEPANn-5" target="uHQ0ieIAPgb02AOEPANn-2" edge="1">
          <mxGeometry relative="1" as="geometry" />
        </mxCell>
        <mxCell id="bEQPRtBtmHfOsYJVfjAv-26" value="6" style="edgeLabel;html=1;align=center;verticalAlign=middle;resizable=0;points=[];" parent="bEQPRtBtmHfOsYJVfjAv-19" vertex="1" connectable="0">
          <mxGeometry x="-0.038" y="-10" relative="1" as="geometry">
            <mxPoint as="offset" />
          </mxGeometry>
        </mxCell>
        <mxCell id="uHQ0ieIAPgb02AOEPANn-5" value="TIMED_WAITING" style="rounded=1;whiteSpace=wrap;html=1;fillColor=#fff2cc;strokeColor=#d6b656;" parent="1" vertex="1">
          <mxGeometry x="760" y="259" width="120" height="60" as="geometry" />
        </mxCell>
        <mxCell id="uHQ0ieIAPgb02AOEPANn-6" value="TERMINATED" style="rounded=1;whiteSpace=wrap;html=1;fillColor=#f8cecc;strokeColor=#b85450;" parent="1" vertex="1">
          <mxGeometry x="470" y="500" width="120" height="60" as="geometry" />
        </mxCell>
        <mxCell id="bEQPRtBtmHfOsYJVfjAv-18" style="edgeStyle=orthogonalEdgeStyle;curved=1;rounded=0;orthogonalLoop=1;jettySize=auto;html=1;exitX=0;exitY=0.5;exitDx=0;exitDy=0;entryX=0.989;entryY=0.943;entryDx=0;entryDy=0;entryPerimeter=0;" parent="1" source="uHQ0ieIAPgb02AOEPANn-4" target="uHQ0ieIAPgb02AOEPANn-2" edge="1">
          <mxGeometry relative="1" as="geometry" />
        </mxCell>
        <mxCell id="bEQPRtBtmHfOsYJVfjAv-28" value="8" style="edgeLabel;html=1;align=center;verticalAlign=middle;resizable=0;points=[];" parent="bEQPRtBtmHfOsYJVfjAv-18" vertex="1" connectable="0">
          <mxGeometry x="-0.4215" y="-7" relative="1" as="geometry">
            <mxPoint as="offset" />
          </mxGeometry>
        </mxCell>
      </root>
    </mxGraphModel>
  </diagram>
  <diagram id="vEIJ6cPtEUYAlNjStZnZ" name="OS&amp;JVM线程对比">
    <mxGraphModel grid="0" page="1" gridSize="10" guides="1" tooltips="1" connect="1" arrows="1" fold="1" pageScale="1" pageWidth="1169" pageHeight="1654" math="0" shadow="0">
      <root>
        <mxCell id="0" />
        <mxCell id="1" parent="0" />
        <mxCell id="kfv_5kCo68BBMFL1VBEQ-32" value="" style="rounded=1;whiteSpace=wrap;html=1;fillStyle=auto;strokeColor=default;strokeWidth=1;" vertex="1" parent="1">
          <mxGeometry x="74" y="117" width="1041" height="390" as="geometry" />
        </mxCell>
        <mxCell id="bTMKLTHeLOdzTPJGCHO4-3" value="NEW" style="rounded=1;whiteSpace=wrap;html=1;fillColor=#f9f7ed;strokeColor=#36393d;" vertex="1" parent="1">
          <mxGeometry x="135" y="164" width="120" height="60" as="geometry" />
        </mxCell>
        <mxCell id="bTMKLTHeLOdzTPJGCHO4-12" value="RUNNABLE" style="rounded=1;whiteSpace=wrap;html=1;fillColor=#cce5ff;strokeColor=#36393d;" vertex="1" parent="1">
          <mxGeometry x="293" y="164" width="120" height="60" as="geometry" />
        </mxCell>
        <mxCell id="bTMKLTHeLOdzTPJGCHO4-15" value="BLOCKED" style="rounded=1;whiteSpace=wrap;html=1;fillColor=#fff2cc;strokeColor=#d6b656;" vertex="1" parent="1">
          <mxGeometry x="451" y="164" width="120" height="60" as="geometry" />
        </mxCell>
        <mxCell id="bTMKLTHeLOdzTPJGCHO4-16" value="WAITING" style="rounded=1;whiteSpace=wrap;html=1;fillColor=#fff2cc;strokeColor=#d6b656;" vertex="1" parent="1">
          <mxGeometry x="769" y="164" width="120" height="60" as="geometry" />
        </mxCell>
        <mxCell id="bTMKLTHeLOdzTPJGCHO4-19" value="TIMED_WAITING" style="rounded=1;whiteSpace=wrap;html=1;fillColor=#fff2cc;strokeColor=#d6b656;" vertex="1" parent="1">
          <mxGeometry x="609" y="164" width="120" height="60" as="geometry" />
        </mxCell>
        <mxCell id="bTMKLTHeLOdzTPJGCHO4-20" value="TERMINATED" style="rounded=1;whiteSpace=wrap;html=1;fillColor=#f9f7ed;strokeColor=#36393d;" vertex="1" parent="1">
          <mxGeometry x="926" y="164" width="120" height="60" as="geometry" />
        </mxCell>
        <mxCell id="kfv_5kCo68BBMFL1VBEQ-1" value="NEW" style="rounded=1;whiteSpace=wrap;html=1;fillColor=#f9f7ed;strokeColor=#36393d;" vertex="1" parent="1">
          <mxGeometry x="135" y="398" width="120" height="60" as="geometry" />
        </mxCell>
        <mxCell id="kfv_5kCo68BBMFL1VBEQ-3" value="Ready" style="rounded=1;whiteSpace=wrap;html=1;fillColor=#cce5ff;strokeColor=#36393d;" vertex="1" parent="1">
          <mxGeometry x="331" y="401" width="120" height="60" as="geometry" />
        </mxCell>
        <mxCell id="kfv_5kCo68BBMFL1VBEQ-6" value="Runing" style="rounded=1;whiteSpace=wrap;html=1;fillColor=#cce5ff;strokeColor=#36393d;" vertex="1" parent="1">
          <mxGeometry x="525" y="401" width="120" height="60" as="geometry" />
        </mxCell>
        <mxCell id="kfv_5kCo68BBMFL1VBEQ-10" value="Waiting" style="rounded=1;whiteSpace=wrap;html=1;fillColor=#f8cecc;strokeColor=#b85450;" vertex="1" parent="1">
          <mxGeometry x="721" y="401" width="120" height="60" as="geometry" />
        </mxCell>
        <mxCell id="kfv_5kCo68BBMFL1VBEQ-11" value="Terminate" style="rounded=1;whiteSpace=wrap;html=1;fillColor=#f9f7ed;strokeColor=#36393d;" vertex="1" parent="1">
          <mxGeometry x="926" y="398" width="120" height="60" as="geometry" />
        </mxCell>
        <mxCell id="kfv_5kCo68BBMFL1VBEQ-22" value="" style="endArrow=none;html=1;rounded=0;" edge="1" parent="1" source="kfv_5kCo68BBMFL1VBEQ-1">
          <mxGeometry width="50" height="50" relative="1" as="geometry">
            <mxPoint x="147" y="274" as="sourcePoint" />
            <mxPoint x="197" y="224" as="targetPoint" />
          </mxGeometry>
        </mxCell>
        <mxCell id="kfv_5kCo68BBMFL1VBEQ-23" value="" style="endArrow=none;html=1;rounded=0;entryX=0.5;entryY=1;entryDx=0;entryDy=0;exitX=0.5;exitY=0;exitDx=0;exitDy=0;" edge="1" parent="1" source="kfv_5kCo68BBMFL1VBEQ-3" target="bTMKLTHeLOdzTPJGCHO4-12">
          <mxGeometry width="50" height="50" relative="1" as="geometry">
            <mxPoint x="347" y="409" as="sourcePoint" />
            <mxPoint x="349" y="235" as="targetPoint" />
          </mxGeometry>
        </mxCell>
        <mxCell id="kfv_5kCo68BBMFL1VBEQ-24" value="" style="endArrow=none;html=1;rounded=0;entryX=0.5;entryY=1;entryDx=0;entryDy=0;exitX=0.5;exitY=0;exitDx=0;exitDy=0;" edge="1" parent="1" source="kfv_5kCo68BBMFL1VBEQ-6" target="bTMKLTHeLOdzTPJGCHO4-12">
          <mxGeometry width="50" height="50" relative="1" as="geometry">
            <mxPoint x="215" y="418" as="sourcePoint" />
            <mxPoint x="217" y="244" as="targetPoint" />
          </mxGeometry>
        </mxCell>
        <mxCell id="kfv_5kCo68BBMFL1VBEQ-25" value="" style="endArrow=none;html=1;rounded=0;entryX=0.5;entryY=1;entryDx=0;entryDy=0;exitX=0.5;exitY=0;exitDx=0;exitDy=0;dashed=1;dashPattern=8 8;" edge="1" parent="1" source="kfv_5kCo68BBMFL1VBEQ-10" target="bTMKLTHeLOdzTPJGCHO4-12">
          <mxGeometry width="50" height="50" relative="1" as="geometry">
            <mxPoint x="225" y="428" as="sourcePoint" />
            <mxPoint x="227" y="254" as="targetPoint" />
          </mxGeometry>
        </mxCell>
        <mxCell id="kfv_5kCo68BBMFL1VBEQ-26" value="" style="endArrow=none;html=1;rounded=0;entryX=0.5;entryY=1;entryDx=0;entryDy=0;exitX=0.5;exitY=0;exitDx=0;exitDy=0;" edge="1" parent="1" source="kfv_5kCo68BBMFL1VBEQ-10" target="bTMKLTHeLOdzTPJGCHO4-15">
          <mxGeometry width="50" height="50" relative="1" as="geometry">
            <mxPoint x="548" y="416" as="sourcePoint" />
            <mxPoint x="550" y="242" as="targetPoint" />
          </mxGeometry>
        </mxCell>
        <mxCell id="kfv_5kCo68BBMFL1VBEQ-27" value="" style="endArrow=none;html=1;rounded=0;entryX=0.5;entryY=1;entryDx=0;entryDy=0;exitX=0.5;exitY=0;exitDx=0;exitDy=0;" edge="1" parent="1" source="kfv_5kCo68BBMFL1VBEQ-10" target="bTMKLTHeLOdzTPJGCHO4-19">
          <mxGeometry width="50" height="50" relative="1" as="geometry">
            <mxPoint x="245" y="448" as="sourcePoint" />
            <mxPoint x="247" y="274" as="targetPoint" />
          </mxGeometry>
        </mxCell>
        <mxCell id="kfv_5kCo68BBMFL1VBEQ-28" value="" style="endArrow=none;html=1;rounded=0;entryX=0.5;entryY=1;entryDx=0;entryDy=0;exitX=0.5;exitY=0;exitDx=0;exitDy=0;" edge="1" parent="1" source="kfv_5kCo68BBMFL1VBEQ-10" target="bTMKLTHeLOdzTPJGCHO4-16">
          <mxGeometry width="50" height="50" relative="1" as="geometry">
            <mxPoint x="255" y="458" as="sourcePoint" />
            <mxPoint x="257" y="284" as="targetPoint" />
          </mxGeometry>
        </mxCell>
        <mxCell id="kfv_5kCo68BBMFL1VBEQ-29" value="" style="endArrow=none;html=1;rounded=0;entryX=0.5;entryY=1;entryDx=0;entryDy=0;exitX=0.5;exitY=0;exitDx=0;exitDy=0;" edge="1" parent="1" source="kfv_5kCo68BBMFL1VBEQ-11" target="bTMKLTHeLOdzTPJGCHO4-20">
          <mxGeometry width="50" height="50" relative="1" as="geometry">
            <mxPoint x="265" y="468" as="sourcePoint" />
            <mxPoint x="267" y="294" as="targetPoint" />
          </mxGeometry>
        </mxCell>
        <mxCell id="kfv_5kCo68BBMFL1VBEQ-30" value="" style="endArrow=none;html=1;rounded=0;strokeColor=#6c8ebf;fillColor=#dae8fc;gradientColor=#7ea6e0;exitX=0;exitY=0.5;exitDx=0;exitDy=0;entryX=1;entryY=0.5;entryDx=0;entryDy=0;" edge="1" parent="1" source="kfv_5kCo68BBMFL1VBEQ-32" target="kfv_5kCo68BBMFL1VBEQ-32">
          <mxGeometry width="50" height="50" relative="1" as="geometry">
            <mxPoint x="96" y="302" as="sourcePoint" />
            <mxPoint x="1094" y="300" as="targetPoint" />
          </mxGeometry>
        </mxCell>
        <mxCell id="kfv_5kCo68BBMFL1VBEQ-33" value="JVM" style="text;html=1;align=center;verticalAlign=middle;whiteSpace=wrap;rounded=0;" vertex="1" parent="1">
          <mxGeometry x="90" y="127" width="60" height="30" as="geometry" />
        </mxCell>
        <mxCell id="kfv_5kCo68BBMFL1VBEQ-36" value="OS" style="text;html=1;align=center;verticalAlign=middle;whiteSpace=wrap;rounded=0;" vertex="1" parent="1">
          <mxGeometry x="97" y="461" width="60" height="30" as="geometry" />
        </mxCell>
      </root>
    </mxGraphModel>
  </diagram>
  <diagram id="j8Wut15wf3UFw9Qu81d0" name="Java线程状态转换">
    <mxGraphModel dx="545" dy="366" grid="0" gridSize="10" guides="1" tooltips="1" connect="1" arrows="1" fold="1" page="1" pageScale="1" pageWidth="1169" pageHeight="1654" math="0" shadow="0">
      <root>
        <mxCell id="0" />
        <mxCell id="1" parent="0" />
        <mxCell id="9wM2UfLxCSnfhmslAFcL-1" style="edgeStyle=orthogonalEdgeStyle;curved=1;rounded=0;orthogonalLoop=1;jettySize=auto;html=1;entryX=0.5;entryY=0;entryDx=0;entryDy=0;" parent="1" source="9wM2UfLxCSnfhmslAFcL-3" target="9wM2UfLxCSnfhmslAFcL-12" edge="1">
          <mxGeometry relative="1" as="geometry" />
        </mxCell>
        <mxCell id="9wM2UfLxCSnfhmslAFcL-2" value="t.start()" style="edgeLabel;html=1;align=center;verticalAlign=middle;resizable=0;points=[];" parent="9wM2UfLxCSnfhmslAFcL-1" vertex="1" connectable="0">
          <mxGeometry x="-0.4774" y="2" relative="1" as="geometry">
            <mxPoint as="offset" />
          </mxGeometry>
        </mxCell>
        <mxCell id="9wM2UfLxCSnfhmslAFcL-3" value="NEW" style="rounded=1;whiteSpace=wrap;html=1;fillColor=#d5e8d4;strokeColor=#82b366;" parent="1" vertex="1">
          <mxGeometry x="470" y="216" width="120" height="60" as="geometry" />
        </mxCell>
        <mxCell id="9wM2UfLxCSnfhmslAFcL-4" style="edgeStyle=orthogonalEdgeStyle;curved=1;rounded=0;orthogonalLoop=1;jettySize=auto;html=1;" parent="1" source="9wM2UfLxCSnfhmslAFcL-12" target="9wM2UfLxCSnfhmslAFcL-20" edge="1">
          <mxGeometry relative="1" as="geometry" />
        </mxCell>
        <mxCell id="9wM2UfLxCSnfhmslAFcL-5" value="运行结束" style="edgeLabel;html=1;align=center;verticalAlign=middle;resizable=0;points=[];" parent="9wM2UfLxCSnfhmslAFcL-4" vertex="1" connectable="0">
          <mxGeometry x="0.0732" relative="1" as="geometry">
            <mxPoint as="offset" />
          </mxGeometry>
        </mxCell>
        <mxCell id="9wM2UfLxCSnfhmslAFcL-6" style="edgeStyle=orthogonalEdgeStyle;curved=1;rounded=0;orthogonalLoop=1;jettySize=auto;html=1;exitX=1;exitY=0;exitDx=0;exitDy=0;entryX=0;entryY=0.25;entryDx=0;entryDy=0;" parent="1" source="9wM2UfLxCSnfhmslAFcL-12" target="9wM2UfLxCSnfhmslAFcL-19" edge="1">
          <mxGeometry relative="1" as="geometry" />
        </mxCell>
        <mxCell id="9wM2UfLxCSnfhmslAFcL-7" value="Thread.sleep(long n)&lt;div&gt;wait(long n)&lt;/div&gt;&lt;div&gt;Thread.join(long n)&lt;/div&gt;&lt;div&gt;LockSupport.parkNanos(long n)&lt;/div&gt;&lt;div&gt;LockSupport.parkUntil(long n)&lt;/div&gt;" style="edgeLabel;html=1;align=center;verticalAlign=middle;resizable=0;points=[];" parent="9wM2UfLxCSnfhmslAFcL-6" vertex="1" connectable="0">
          <mxGeometry x="0.2451" y="-10" relative="1" as="geometry">
            <mxPoint x="11" y="-1" as="offset" />
          </mxGeometry>
        </mxCell>
        <mxCell id="9wM2UfLxCSnfhmslAFcL-8" style="edgeStyle=orthogonalEdgeStyle;curved=1;rounded=0;orthogonalLoop=1;jettySize=auto;html=1;exitX=0;exitY=0.25;exitDx=0;exitDy=0;entryX=1;entryY=0.25;entryDx=0;entryDy=0;" parent="1" source="9wM2UfLxCSnfhmslAFcL-12" target="9wM2UfLxCSnfhmslAFcL-15" edge="1">
          <mxGeometry relative="1" as="geometry" />
        </mxCell>
        <mxCell id="9wM2UfLxCSnfhmslAFcL-9" value="争抢锁失败" style="edgeLabel;html=1;align=center;verticalAlign=middle;resizable=0;points=[];" parent="9wM2UfLxCSnfhmslAFcL-8" vertex="1" connectable="0">
          <mxGeometry x="-0.3484" y="2" relative="1" as="geometry">
            <mxPoint x="-13" as="offset" />
          </mxGeometry>
        </mxCell>
        <mxCell id="9wM2UfLxCSnfhmslAFcL-10" style="edgeStyle=orthogonalEdgeStyle;curved=1;rounded=0;orthogonalLoop=1;jettySize=auto;html=1;exitX=1;exitY=0.75;exitDx=0;exitDy=0;entryX=0.5;entryY=0;entryDx=0;entryDy=0;" parent="1" source="9wM2UfLxCSnfhmslAFcL-12" target="9wM2UfLxCSnfhmslAFcL-16" edge="1">
          <mxGeometry relative="1" as="geometry" />
        </mxCell>
        <mxCell id="9wM2UfLxCSnfhmslAFcL-11" value="join()&lt;div&gt;wait()&lt;/div&gt;&lt;div&gt;LockSupport.park()&lt;/div&gt;" style="edgeLabel;html=1;align=center;verticalAlign=middle;resizable=0;points=[];" parent="9wM2UfLxCSnfhmslAFcL-10" vertex="1" connectable="0">
          <mxGeometry x="-0.1437" y="-7" relative="1" as="geometry">
            <mxPoint as="offset" />
          </mxGeometry>
        </mxCell>
        <mxCell id="9wM2UfLxCSnfhmslAFcL-12" value="RUNNABLE" style="rounded=1;whiteSpace=wrap;html=1;fillColor=#dae8fc;strokeColor=#6c8ebf;" parent="1" vertex="1">
          <mxGeometry x="470" y="358" width="120" height="60" as="geometry" />
        </mxCell>
        <mxCell id="9wM2UfLxCSnfhmslAFcL-13" style="edgeStyle=orthogonalEdgeStyle;curved=1;rounded=0;orthogonalLoop=1;jettySize=auto;html=1;exitX=1;exitY=0.75;exitDx=0;exitDy=0;entryX=0;entryY=0.75;entryDx=0;entryDy=0;" parent="1" source="9wM2UfLxCSnfhmslAFcL-15" target="9wM2UfLxCSnfhmslAFcL-12" edge="1">
          <mxGeometry relative="1" as="geometry" />
        </mxCell>
        <mxCell id="9wM2UfLxCSnfhmslAFcL-14" value="抢到锁资源" style="edgeLabel;html=1;align=center;verticalAlign=middle;resizable=0;points=[];" parent="9wM2UfLxCSnfhmslAFcL-13" vertex="1" connectable="0">
          <mxGeometry x="0.1922" y="1" relative="1" as="geometry">
            <mxPoint as="offset" />
          </mxGeometry>
        </mxCell>
        <mxCell id="9wM2UfLxCSnfhmslAFcL-15" value="BLOCKED" style="rounded=1;whiteSpace=wrap;html=1;fillColor=#e1d5e7;strokeColor=#9673a6;" parent="1" vertex="1">
          <mxGeometry x="211" y="358" width="120" height="60" as="geometry" />
        </mxCell>
        <mxCell id="9wM2UfLxCSnfhmslAFcL-16" value="WAITING" style="rounded=1;whiteSpace=wrap;html=1;fillColor=#ffe6cc;strokeColor=#d79b00;" parent="1" vertex="1">
          <mxGeometry x="769" y="472" width="120" height="60" as="geometry" />
        </mxCell>
        <mxCell id="9wM2UfLxCSnfhmslAFcL-17" style="edgeStyle=orthogonalEdgeStyle;curved=1;rounded=0;orthogonalLoop=1;jettySize=auto;html=1;exitX=0.25;exitY=1;exitDx=0;exitDy=0;entryX=1;entryY=0.25;entryDx=0;entryDy=0;" parent="1" source="9wM2UfLxCSnfhmslAFcL-19" target="9wM2UfLxCSnfhmslAFcL-12" edge="1">
          <mxGeometry relative="1" as="geometry" />
        </mxCell>
        <mxCell id="9wM2UfLxCSnfhmslAFcL-24" value="notify()&lt;div&gt;notifyAll()&lt;/div&gt;&lt;div&gt;LockSupport.unpark()&lt;/div&gt;" style="edgeLabel;html=1;align=center;verticalAlign=middle;resizable=0;points=[];" parent="9wM2UfLxCSnfhmslAFcL-17" vertex="1" connectable="0">
          <mxGeometry x="-0.8022" y="-10" relative="1" as="geometry">
            <mxPoint as="offset" />
          </mxGeometry>
        </mxCell>
        <mxCell id="9wM2UfLxCSnfhmslAFcL-19" value="TIMED_WAITING" style="rounded=1;whiteSpace=wrap;html=1;fillColor=#fff2cc;strokeColor=#d6b656;" parent="1" vertex="1">
          <mxGeometry x="786" y="230" width="120" height="60" as="geometry" />
        </mxCell>
        <mxCell id="9wM2UfLxCSnfhmslAFcL-20" value="TERMINATED" style="rounded=1;whiteSpace=wrap;html=1;fillColor=#f8cecc;strokeColor=#b85450;" parent="1" vertex="1">
          <mxGeometry x="470" y="500" width="120" height="60" as="geometry" />
        </mxCell>
        <mxCell id="9wM2UfLxCSnfhmslAFcL-21" style="edgeStyle=orthogonalEdgeStyle;curved=1;rounded=0;orthogonalLoop=1;jettySize=auto;html=1;exitX=0;exitY=0.5;exitDx=0;exitDy=0;entryX=0.989;entryY=0.943;entryDx=0;entryDy=0;entryPerimeter=0;" parent="1" source="9wM2UfLxCSnfhmslAFcL-16" target="9wM2UfLxCSnfhmslAFcL-12" edge="1">
          <mxGeometry relative="1" as="geometry" />
        </mxCell>
        <mxCell id="9wM2UfLxCSnfhmslAFcL-22" value="notify()&lt;div&gt;notifyAll()&lt;/div&gt;&lt;div&gt;LockSupport.unpark()&lt;/div&gt;" style="edgeLabel;html=1;align=center;verticalAlign=middle;resizable=0;points=[];" parent="9wM2UfLxCSnfhmslAFcL-21" vertex="1" connectable="0">
          <mxGeometry x="-0.4215" y="-7" relative="1" as="geometry">
            <mxPoint as="offset" />
          </mxGeometry>
        </mxCell>
      </root>
    </mxGraphModel>
  </diagram>
  <diagram id="wyvSWkaV7mM4u5_i4dm1" name="Jav对象内存布局">
    <mxGraphModel dx="545" dy="366" grid="0" gridSize="10" guides="1" tooltips="1" connect="1" arrows="1" fold="1" page="1" pageScale="1" pageWidth="1169" pageHeight="1654" math="0" shadow="0">
      <root>
        <mxCell id="0" />
        <mxCell id="1" parent="0" />
        <mxCell id="jT-BZRuQSYiHTPr7h-cJ-2" value="对象头" style="rounded=0;whiteSpace=wrap;html=1;fillColor=#FFFFE3;strokeColor=#82b366;" vertex="1" parent="1">
          <mxGeometry x="425" y="327" width="100" height="50" as="geometry" />
        </mxCell>
        <mxCell id="jT-BZRuQSYiHTPr7h-cJ-4" value="实例数据" style="rounded=0;whiteSpace=wrap;html=1;fillColor=#dae8fc;strokeColor=#6c8ebf;" vertex="1" parent="1">
          <mxGeometry x="525" y="327" width="210" height="50" as="geometry" />
        </mxCell>
        <mxCell id="jT-BZRuQSYiHTPr7h-cJ-5" value="对齐&lt;br&gt;填充" style="rounded=0;whiteSpace=wrap;html=1;fillColor=#f5f5f5;fontColor=#333333;strokeColor=#666666;" vertex="1" parent="1">
          <mxGeometry x="735" y="327" width="50" height="50" as="geometry" />
        </mxCell>
        <mxCell id="jT-BZRuQSYiHTPr7h-cJ-13" value="" style="shape=curlyBracket;whiteSpace=wrap;html=1;rounded=1;labelPosition=left;verticalLabelPosition=middle;align=right;verticalAlign=middle;rotation=-90;" vertex="1" parent="1">
          <mxGeometry x="450.5" y="214" width="49" height="169" as="geometry" />
        </mxCell>
        <mxCell id="jT-BZRuQSYiHTPr7h-cJ-14" value="Mark Word" style="rounded=0;whiteSpace=wrap;html=1;strokeColor=#A9C4EB;" vertex="1" parent="1">
          <mxGeometry x="363" y="232" width="79" height="29" as="geometry" />
        </mxCell>
        <mxCell id="jT-BZRuQSYiHTPr7h-cJ-15" value="Class Point" style="rounded=0;whiteSpace=wrap;html=1;strokeColor=#B5739D;" vertex="1" parent="1">
          <mxGeometry x="442" y="232" width="79" height="29" as="geometry" />
        </mxCell>
        <mxCell id="jT-BZRuQSYiHTPr7h-cJ-17" value="&lt;font style=&quot;font-size: 9px;&quot;&gt;数组长度&lt;br&gt;（数组专属）&lt;/font&gt;" style="rounded=0;whiteSpace=wrap;html=1;dashed=1;strokeColor=#EA6B66;" vertex="1" parent="1">
          <mxGeometry x="521" y="232" width="79" height="29" as="geometry" />
        </mxCell>
      </root>
    </mxGraphModel>
  </diagram>
  <diagram id="8Q3PwVV2Gv1nOucSu36n" name="MarkWord结构">
    <mxGraphModel dx="707" dy="474" grid="0" gridSize="10" guides="1" tooltips="1" connect="1" arrows="1" fold="1" page="1" pageScale="1" pageWidth="1169" pageHeight="1654" math="0" shadow="0">
      <root>
        <mxCell id="0" />
        <mxCell id="1" parent="0" />
        <mxCell id="l4GwTREOxIdY4lPvDCoA-2" value="无锁" style="rounded=0;whiteSpace=wrap;html=1;dashed=1;strokeColor=default;" vertex="1" parent="1">
          <mxGeometry x="57" y="167" width="107" height="34" as="geometry" />
        </mxCell>
        <mxCell id="l4GwTREOxIdY4lPvDCoA-3" value="偏向锁" style="rounded=0;whiteSpace=wrap;html=1;dashed=1;strokeColor=default;" vertex="1" parent="1">
          <mxGeometry x="57" y="201" width="107" height="34" as="geometry" />
        </mxCell>
        <mxCell id="l4GwTREOxIdY4lPvDCoA-4" value="轻量级锁" style="rounded=0;whiteSpace=wrap;html=1;dashed=1;strokeColor=default;" vertex="1" parent="1">
          <mxGeometry x="57" y="235" width="107" height="34" as="geometry" />
        </mxCell>
        <mxCell id="l4GwTREOxIdY4lPvDCoA-5" value="重量级锁" style="rounded=0;whiteSpace=wrap;html=1;dashed=1;strokeColor=default;" vertex="1" parent="1">
          <mxGeometry x="57" y="269" width="107" height="34" as="geometry" />
        </mxCell>
        <mxCell id="l4GwTREOxIdY4lPvDCoA-6" value="GC标记" style="rounded=0;whiteSpace=wrap;html=1;dashed=1;strokeColor=default;" vertex="1" parent="1">
          <mxGeometry x="57" y="303" width="107" height="34" as="geometry" />
        </mxCell>
        <mxCell id="l4GwTREOxIdY4lPvDCoA-7" value="对象hashcode (25bit)" style="rounded=0;whiteSpace=wrap;html=1;fillColor=#f5f5f5;strokeColor=default;fontColor=#333333;" vertex="1" parent="1">
          <mxGeometry x="164" y="167" width="232" height="34" as="geometry" />
        </mxCell>
        <mxCell id="l4GwTREOxIdY4lPvDCoA-8" value="分代年龄(4bit)" style="rounded=0;whiteSpace=wrap;html=1;fillColor=#f5f5f5;strokeColor=default;fontColor=#333333;" vertex="1" parent="1">
          <mxGeometry x="396" y="167" width="107" height="34" as="geometry" />
        </mxCell>
        <mxCell id="l4GwTREOxIdY4lPvDCoA-9" value="0" style="rounded=0;whiteSpace=wrap;html=1;fillColor=#f5f5f5;strokeColor=default;fontColor=#333333;" vertex="1" parent="1">
          <mxGeometry x="503" y="167" width="37" height="34" as="geometry" />
        </mxCell>
        <mxCell id="l4GwTREOxIdY4lPvDCoA-10" value="01" style="rounded=0;whiteSpace=wrap;html=1;fillColor=#f5f5f5;strokeColor=default;fontColor=#333333;" vertex="1" parent="1">
          <mxGeometry x="540" y="167" width="66" height="34" as="geometry" />
        </mxCell>
        <mxCell id="l4GwTREOxIdY4lPvDCoA-11" value="线程ID(23bit)" style="rounded=0;whiteSpace=wrap;html=1;fillColor=#D4E1F5;strokeColor=default;" vertex="1" parent="1">
          <mxGeometry x="164" y="201" width="151" height="34" as="geometry" />
        </mxCell>
        <mxCell id="l4GwTREOxIdY4lPvDCoA-12" value="epoch(2bit)" style="rounded=0;whiteSpace=wrap;html=1;fillColor=#D4E1F5;strokeColor=default;" vertex="1" parent="1">
          <mxGeometry x="315" y="201" width="81" height="34" as="geometry" />
        </mxCell>
        <mxCell id="l4GwTREOxIdY4lPvDCoA-13" value="分代年龄(4bit)" style="rounded=0;whiteSpace=wrap;html=1;fillColor=#D4E1F5;strokeColor=default;" vertex="1" parent="1">
          <mxGeometry x="396" y="201" width="107" height="34" as="geometry" />
        </mxCell>
        <mxCell id="l4GwTREOxIdY4lPvDCoA-14" value="1" style="rounded=0;whiteSpace=wrap;html=1;fillColor=#D4E1F5;strokeColor=default;" vertex="1" parent="1">
          <mxGeometry x="503" y="201" width="37" height="34" as="geometry" />
        </mxCell>
        <mxCell id="l4GwTREOxIdY4lPvDCoA-15" value="01" style="rounded=0;whiteSpace=wrap;html=1;fillColor=#D4E1F5;strokeColor=default;" vertex="1" parent="1">
          <mxGeometry x="540" y="201" width="66" height="34" as="geometry" />
        </mxCell>
        <mxCell id="l4GwTREOxIdY4lPvDCoA-16" value="指向线程堆栈中的锁记录的指针(30bit)" style="rounded=0;whiteSpace=wrap;html=1;fillColor=#fff2cc;strokeColor=default;" vertex="1" parent="1">
          <mxGeometry x="164" y="235" width="376" height="34" as="geometry" />
        </mxCell>
        <mxCell id="l4GwTREOxIdY4lPvDCoA-17" value="00" style="rounded=0;whiteSpace=wrap;html=1;fillColor=#fff2cc;strokeColor=default;" vertex="1" parent="1">
          <mxGeometry x="540" y="235" width="66" height="34" as="geometry" />
        </mxCell>
        <mxCell id="l4GwTREOxIdY4lPvDCoA-18" value="指向monitor的指针(30bit)" style="rounded=0;whiteSpace=wrap;html=1;fillColor=#f8cecc;strokeColor=default;" vertex="1" parent="1">
          <mxGeometry x="164" y="269" width="376" height="34" as="geometry" />
        </mxCell>
        <mxCell id="l4GwTREOxIdY4lPvDCoA-19" value="10" style="rounded=0;whiteSpace=wrap;html=1;fillColor=#f8cecc;strokeColor=default;" vertex="1" parent="1">
          <mxGeometry x="540" y="269" width="66" height="34" as="geometry" />
        </mxCell>
        <mxCell id="l4GwTREOxIdY4lPvDCoA-20" value="CMS过程中用到的标记信息" style="rounded=0;whiteSpace=wrap;html=1;fillColor=#f9f7ed;strokeColor=default;" vertex="1" parent="1">
          <mxGeometry x="164" y="303" width="376" height="34" as="geometry" />
        </mxCell>
        <mxCell id="l4GwTREOxIdY4lPvDCoA-21" value="10" style="rounded=0;whiteSpace=wrap;html=1;fillColor=#f9f7ed;strokeColor=default;" vertex="1" parent="1">
          <mxGeometry x="540" y="303" width="66" height="34" as="geometry" />
        </mxCell>
        <mxCell id="l4GwTREOxIdY4lPvDCoA-22" value="无锁" style="rounded=0;whiteSpace=wrap;html=1;dashed=1;strokeColor=default;" vertex="1" parent="1">
          <mxGeometry x="57" y="408" width="107" height="34" as="geometry" />
        </mxCell>
        <mxCell id="l4GwTREOxIdY4lPvDCoA-23" value="偏向锁" style="rounded=0;whiteSpace=wrap;html=1;dashed=1;strokeColor=default;" vertex="1" parent="1">
          <mxGeometry x="57" y="442" width="107" height="34" as="geometry" />
        </mxCell>
        <mxCell id="l4GwTREOxIdY4lPvDCoA-24" value="轻量级锁" style="rounded=0;whiteSpace=wrap;html=1;dashed=1;strokeColor=default;" vertex="1" parent="1">
          <mxGeometry x="57" y="476" width="107" height="34" as="geometry" />
        </mxCell>
        <mxCell id="l4GwTREOxIdY4lPvDCoA-25" value="重量级锁" style="rounded=0;whiteSpace=wrap;html=1;dashed=1;strokeColor=default;" vertex="1" parent="1">
          <mxGeometry x="57" y="510" width="107" height="34" as="geometry" />
        </mxCell>
        <mxCell id="l4GwTREOxIdY4lPvDCoA-26" value="GC标记" style="rounded=0;whiteSpace=wrap;html=1;dashed=1;strokeColor=default;" vertex="1" parent="1">
          <mxGeometry x="57" y="544" width="107" height="34" as="geometry" />
        </mxCell>
        <mxCell id="l4GwTREOxIdY4lPvDCoA-27" value="对象hashcode (31bit)" style="rounded=0;whiteSpace=wrap;html=1;fillColor=#f5f5f5;strokeColor=default;fontColor=#333333;" vertex="1" parent="1">
          <mxGeometry x="251" y="408" width="145" height="34" as="geometry" />
        </mxCell>
        <mxCell id="l4GwTREOxIdY4lPvDCoA-28" value="分代年龄(4bit)" style="rounded=0;whiteSpace=wrap;html=1;fillColor=#f5f5f5;strokeColor=default;fontColor=#333333;" vertex="1" parent="1">
          <mxGeometry x="434" y="408" width="69" height="34" as="geometry" />
        </mxCell>
        <mxCell id="l4GwTREOxIdY4lPvDCoA-29" value="0" style="rounded=0;whiteSpace=wrap;html=1;fillColor=#f5f5f5;strokeColor=default;fontColor=#333333;" vertex="1" parent="1">
          <mxGeometry x="503" y="408" width="37" height="34" as="geometry" />
        </mxCell>
        <mxCell id="l4GwTREOxIdY4lPvDCoA-30" value="01" style="rounded=0;whiteSpace=wrap;html=1;fillColor=#f5f5f5;strokeColor=default;fontColor=#333333;" vertex="1" parent="1">
          <mxGeometry x="540" y="408" width="66" height="34" as="geometry" />
        </mxCell>
        <mxCell id="l4GwTREOxIdY4lPvDCoA-31" value="线程ID(54bit)" style="rounded=0;whiteSpace=wrap;html=1;fillColor=#D4E1F5;strokeColor=default;" vertex="1" parent="1">
          <mxGeometry x="164" y="442" width="151" height="34" as="geometry" />
        </mxCell>
        <mxCell id="l4GwTREOxIdY4lPvDCoA-32" value="epoch(2bit)" style="rounded=0;whiteSpace=wrap;html=1;fillColor=#D4E1F5;strokeColor=default;" vertex="1" parent="1">
          <mxGeometry x="315" y="442" width="81" height="34" as="geometry" />
        </mxCell>
        <mxCell id="l4GwTREOxIdY4lPvDCoA-34" value="1" style="rounded=0;whiteSpace=wrap;html=1;fillColor=#D4E1F5;strokeColor=default;" vertex="1" parent="1">
          <mxGeometry x="503" y="442" width="37" height="34" as="geometry" />
        </mxCell>
        <mxCell id="l4GwTREOxIdY4lPvDCoA-35" value="01" style="rounded=0;whiteSpace=wrap;html=1;fillColor=#D4E1F5;strokeColor=default;" vertex="1" parent="1">
          <mxGeometry x="540" y="442" width="66" height="34" as="geometry" />
        </mxCell>
        <mxCell id="l4GwTREOxIdY4lPvDCoA-36" value="指向线程堆栈中的锁记录的指针(62bit)" style="rounded=0;whiteSpace=wrap;html=1;fillColor=#fff2cc;strokeColor=default;" vertex="1" parent="1">
          <mxGeometry x="164" y="476" width="376" height="34" as="geometry" />
        </mxCell>
        <mxCell id="l4GwTREOxIdY4lPvDCoA-37" value="00" style="rounded=0;whiteSpace=wrap;html=1;fillColor=#fff2cc;strokeColor=default;" vertex="1" parent="1">
          <mxGeometry x="540" y="476" width="66" height="34" as="geometry" />
        </mxCell>
        <mxCell id="l4GwTREOxIdY4lPvDCoA-38" value="指向monitor的指针(62bit)" style="rounded=0;whiteSpace=wrap;html=1;fillColor=#f8cecc;strokeColor=default;" vertex="1" parent="1">
          <mxGeometry x="164" y="510" width="376" height="34" as="geometry" />
        </mxCell>
        <mxCell id="l4GwTREOxIdY4lPvDCoA-39" value="10" style="rounded=0;whiteSpace=wrap;html=1;fillColor=#f8cecc;strokeColor=default;" vertex="1" parent="1">
          <mxGeometry x="540" y="510" width="66" height="34" as="geometry" />
        </mxCell>
        <mxCell id="l4GwTREOxIdY4lPvDCoA-40" value="CMS过程中用到的标记信息" style="rounded=0;whiteSpace=wrap;html=1;fillColor=#f9f7ed;strokeColor=default;" vertex="1" parent="1">
          <mxGeometry x="164" y="544" width="376" height="34" as="geometry" />
        </mxCell>
        <mxCell id="l4GwTREOxIdY4lPvDCoA-41" value="10" style="rounded=0;whiteSpace=wrap;html=1;fillColor=#f9f7ed;strokeColor=default;" vertex="1" parent="1">
          <mxGeometry x="540" y="544" width="66" height="34" as="geometry" />
        </mxCell>
        <mxCell id="l4GwTREOxIdY4lPvDCoA-42" value="&lt;font style=&quot;font-size: 10px;&quot;&gt;unused(25bit)&lt;/font&gt;" style="rounded=0;whiteSpace=wrap;html=1;fillColor=#f5f5f5;strokeColor=default;fontColor=#333333;" vertex="1" parent="1">
          <mxGeometry x="164" y="408" width="87" height="34" as="geometry" />
        </mxCell>
        <mxCell id="l4GwTREOxIdY4lPvDCoA-43" value="&lt;font style=&quot;font-size: 10px;&quot;&gt;unused&lt;br&gt;(1bit)&lt;/font&gt;" style="rounded=0;whiteSpace=wrap;html=1;fillColor=#f5f5f5;strokeColor=default;fontColor=#333333;" vertex="1" parent="1">
          <mxGeometry x="396" y="408" width="38" height="34" as="geometry" />
        </mxCell>
        <mxCell id="l4GwTREOxIdY4lPvDCoA-45" value="分代年龄(4bit)" style="rounded=0;whiteSpace=wrap;html=1;fillColor=#D4E1F5;strokeColor=default;" vertex="1" parent="1">
          <mxGeometry x="434" y="442" width="69" height="34" as="geometry" />
        </mxCell>
        <mxCell id="l4GwTREOxIdY4lPvDCoA-46" value="&lt;font style=&quot;font-size: 10px;&quot;&gt;unused&lt;br&gt;(1bit)&lt;/font&gt;" style="rounded=0;whiteSpace=wrap;html=1;fillColor=#D4E1F5;strokeColor=default;" vertex="1" parent="1">
          <mxGeometry x="396" y="442" width="38" height="34" as="geometry" />
        </mxCell>
        <mxCell id="l4GwTREOxIdY4lPvDCoA-47" value="32位JVM" style="text;html=1;align=center;verticalAlign=middle;whiteSpace=wrap;rounded=0;fontStyle=1" vertex="1" parent="1">
          <mxGeometry x="57" y="137" width="60" height="30" as="geometry" />
        </mxCell>
        <mxCell id="l4GwTREOxIdY4lPvDCoA-48" value="64位JVM" style="text;html=1;align=center;verticalAlign=middle;whiteSpace=wrap;rounded=0;fontStyle=1" vertex="1" parent="1">
          <mxGeometry x="57" y="378" width="60" height="30" as="geometry" />
        </mxCell>
      </root>
    </mxGraphModel>
  </diagram>
  <diagram id="D_xeKsr34ZxSeAgXbhWQ" name="Monitor">
    <mxGraphModel dx="658" dy="441" grid="0" gridSize="10" guides="1" tooltips="1" connect="1" arrows="1" fold="1" page="1" pageScale="1" pageWidth="1169" pageHeight="1654" math="0" shadow="0">
      <root>
        <mxCell id="0" />
        <mxCell id="1" parent="0" />
        <mxCell id="kiAiHguZQ9AY1o63vSx5-17" value="" style="rounded=0;whiteSpace=wrap;html=1;fontFamily=Comic Sans MS;fillColor=#eeeeee;strokeColor=#36393D;" vertex="1" parent="1">
          <mxGeometry x="585" y="223" width="154" height="75" as="geometry" />
        </mxCell>
        <mxCell id="kiAiHguZQ9AY1o63vSx5-16" value="" style="rounded=0;whiteSpace=wrap;html=1;fontFamily=Comic Sans MS;fillColor=#eeeeee;strokeColor=#36393D;" vertex="1" parent="1">
          <mxGeometry x="179" y="132" width="154" height="75" as="geometry" />
        </mxCell>
        <mxCell id="kiAiHguZQ9AY1o63vSx5-2" value="" style="rounded=0;whiteSpace=wrap;html=1;fontFamily=Comic Sans MS;fillColor=#f5f5f5;strokeColor=#36393D;fontColor=#333333;" vertex="1" parent="1">
          <mxGeometry x="364" y="85" width="197" height="309" as="geometry" />
        </mxCell>
        <mxCell id="kiAiHguZQ9AY1o63vSx5-18" style="edgeStyle=orthogonalEdgeStyle;rounded=0;orthogonalLoop=1;jettySize=auto;html=1;exitX=0;exitY=0.5;exitDx=0;exitDy=0;entryX=1;entryY=0.5;entryDx=0;entryDy=0;strokeColor=#36393D;" edge="1" parent="1" source="kiAiHguZQ9AY1o63vSx5-3" target="kiAiHguZQ9AY1o63vSx5-16">
          <mxGeometry relative="1" as="geometry" />
        </mxCell>
        <mxCell id="kiAiHguZQ9AY1o63vSx5-3" value="WaitSet" style="rounded=0;whiteSpace=wrap;html=1;fontFamily=Comic Sans MS;fillColor=#f8cecc;strokeColor=#36393D;" vertex="1" parent="1">
          <mxGeometry x="388" y="142" width="154" height="55" as="geometry" />
        </mxCell>
        <mxCell id="kiAiHguZQ9AY1o63vSx5-19" style="edgeStyle=orthogonalEdgeStyle;rounded=0;orthogonalLoop=1;jettySize=auto;html=1;exitX=1;exitY=0.5;exitDx=0;exitDy=0;entryX=0;entryY=0.5;entryDx=0;entryDy=0;strokeColor=#36393D;" edge="1" parent="1" source="kiAiHguZQ9AY1o63vSx5-4" target="kiAiHguZQ9AY1o63vSx5-17">
          <mxGeometry relative="1" as="geometry" />
        </mxCell>
        <mxCell id="kiAiHguZQ9AY1o63vSx5-4" value="EntryList" style="rounded=0;whiteSpace=wrap;html=1;fontFamily=Comic Sans MS;fillColor=#fff2cc;strokeColor=#36393D;" vertex="1" parent="1">
          <mxGeometry x="388" y="233" width="154" height="55" as="geometry" />
        </mxCell>
        <mxCell id="kiAiHguZQ9AY1o63vSx5-11" style="edgeStyle=orthogonalEdgeStyle;rounded=0;orthogonalLoop=1;jettySize=auto;html=1;exitX=0.5;exitY=1;exitDx=0;exitDy=0;entryX=0.5;entryY=1;entryDx=0;entryDy=0;fontFamily=Comic Sans MS;strokeColor=#36393D;" edge="1" parent="1" source="kiAiHguZQ9AY1o63vSx5-5" target="kiAiHguZQ9AY1o63vSx5-8">
          <mxGeometry relative="1" as="geometry" />
        </mxCell>
        <mxCell id="kiAiHguZQ9AY1o63vSx5-5" value="Owner" style="rounded=0;whiteSpace=wrap;html=1;fontFamily=Comic Sans MS;fillColor=#dae8fc;strokeColor=#36393D;" vertex="1" parent="1">
          <mxGeometry x="388" y="324" width="154" height="55" as="geometry" />
        </mxCell>
        <mxCell id="kiAiHguZQ9AY1o63vSx5-8" value="Thread-5" style="ellipse;whiteSpace=wrap;html=1;fontFamily=Comic Sans MS;fillColor=#f9f7ed;strokeColor=#36393D;rounded=0;" vertex="1" parent="1">
          <mxGeometry x="270" y="352" width="56" height="40" as="geometry" />
        </mxCell>
        <mxCell id="kiAiHguZQ9AY1o63vSx5-12" value="Thread-1" style="ellipse;whiteSpace=wrap;html=1;fontFamily=Comic Sans MS;fillColor=#f9f7ed;strokeColor=#36393D;rounded=0;" vertex="1" parent="1">
          <mxGeometry x="191" y="147" width="56" height="41" as="geometry" />
        </mxCell>
        <mxCell id="kiAiHguZQ9AY1o63vSx5-13" value="Thread-3" style="ellipse;whiteSpace=wrap;html=1;fontFamily=Comic Sans MS;fillColor=#f9f7ed;strokeColor=#36393D;rounded=0;" vertex="1" parent="1">
          <mxGeometry x="263" y="147" width="56" height="41" as="geometry" />
        </mxCell>
        <mxCell id="kiAiHguZQ9AY1o63vSx5-14" value="Thread-2" style="ellipse;whiteSpace=wrap;html=1;fontFamily=Comic Sans MS;fillColor=#f9f7ed;strokeColor=#36393D;rounded=0;" vertex="1" parent="1">
          <mxGeometry x="597" y="240" width="56" height="41" as="geometry" />
        </mxCell>
        <mxCell id="kiAiHguZQ9AY1o63vSx5-15" value="Thread-4" style="ellipse;whiteSpace=wrap;html=1;fontFamily=Comic Sans MS;fillColor=#f9f7ed;strokeColor=#36393D;rounded=0;" vertex="1" parent="1">
          <mxGeometry x="667" y="240" width="56" height="41" as="geometry" />
        </mxCell>
        <mxCell id="kiAiHguZQ9AY1o63vSx5-20" value="Monitor" style="text;html=1;align=center;verticalAlign=middle;whiteSpace=wrap;rounded=0;fontFamily=Comic Sans MS;strokeColor=#36393D;" vertex="1" parent="1">
          <mxGeometry x="364" y="85" width="60" height="30" as="geometry" />
        </mxCell>
      </root>
    </mxGraphModel>
  </diagram>
  <diagram id="3L-s66GEpczFZZxmjuPi" name="栈帧锁对象">
    <mxGraphModel dx="561" dy="376" grid="0" gridSize="10" guides="1" tooltips="1" connect="1" arrows="1" fold="1" page="1" pageScale="1" pageWidth="1169" pageHeight="1654" math="0" shadow="0">
      <root>
        <mxCell id="0" />
        <mxCell id="1" parent="0" />
        <mxCell id="UJYWBWO3ZcGzj_Wsn6XN-3" value="" style="rounded=0;whiteSpace=wrap;html=1;fillColor=#f5f5f5;fontColor=#333333;strokeColor=#666666;" vertex="1" parent="1">
          <mxGeometry x="444" y="163" width="184" height="256" as="geometry" />
        </mxCell>
        <mxCell id="AJ0Jd09RRqWMqrUXTKG9-1" value="" style="rounded=0;whiteSpace=wrap;html=1;fillColor=#f9f7ed;strokeColor=#36393d;" vertex="1" parent="1">
          <mxGeometry x="194" y="163" width="180" height="256" as="geometry" />
        </mxCell>
        <mxCell id="MC-5vC57a7H5YS3qbwEJ-1" value="hashcode、age、bias、01" style="rounded=0;whiteSpace=wrap;html=1;fillColor=#cce5ff;strokeColor=#36393d;" vertex="1" parent="1">
          <mxGeometry x="460" y="206" width="151" height="31" as="geometry" />
        </mxCell>
        <mxCell id="MC-5vC57a7H5YS3qbwEJ-2" value="class point" style="rounded=0;whiteSpace=wrap;html=1;" vertex="1" parent="1">
          <mxGeometry x="460" y="237" width="151" height="31" as="geometry" />
        </mxCell>
        <mxCell id="MC-5vC57a7H5YS3qbwEJ-3" value="array length" style="rounded=0;whiteSpace=wrap;html=1;dashed=1;" vertex="1" parent="1">
          <mxGeometry x="460" y="268" width="151" height="31" as="geometry" />
        </mxCell>
        <mxCell id="MC-5vC57a7H5YS3qbwEJ-4" value="实例数据" style="rounded=0;whiteSpace=wrap;html=1;" vertex="1" parent="1">
          <mxGeometry x="460" y="313" width="153" height="55" as="geometry" />
        </mxCell>
        <mxCell id="BSgHW6GkSMaVQeGE9xhW-1" value="对齐填充" style="rounded=0;whiteSpace=wrap;html=1;dashed=1;" vertex="1" parent="1">
          <mxGeometry x="460" y="382" width="153" height="22" as="geometry" />
        </mxCell>
        <mxCell id="BSgHW6GkSMaVQeGE9xhW-2" value="Object" style="text;html=1;align=center;verticalAlign=middle;whiteSpace=wrap;rounded=0;" vertex="1" parent="1">
          <mxGeometry x="444" y="163" width="60" height="30" as="geometry" />
        </mxCell>
        <mxCell id="BSgHW6GkSMaVQeGE9xhW-3" value="Thread-1" style="text;html=1;align=center;verticalAlign=middle;whiteSpace=wrap;rounded=0;" vertex="1" parent="1">
          <mxGeometry x="194" y="163" width="60" height="30" as="geometry" />
        </mxCell>
        <mxCell id="BSgHW6GkSMaVQeGE9xhW-4" value="" style="rounded=1;whiteSpace=wrap;html=1;" vertex="1" parent="1">
          <mxGeometry x="202" y="321" width="163.5" height="90" as="geometry" />
        </mxCell>
        <mxCell id="6-dAwyzMrz1kdAwUFIIr-1" value="锁记录的指针、00" style="rounded=0;whiteSpace=wrap;html=1;fillColor=#d5e8d4;strokeColor=#82b366;" vertex="1" parent="1">
          <mxGeometry x="207" y="335" width="154.5" height="20" as="geometry" />
        </mxCell>
        <mxCell id="bD5z26xpHcu51Z44uP9u-1" value="null(Object Reference)" style="rounded=0;whiteSpace=wrap;html=1;" vertex="1" parent="1">
          <mxGeometry x="208" y="373" width="153.5" height="20" as="geometry" />
        </mxCell>
        <mxCell id="bD5z26xpHcu51Z44uP9u-2" value="" style="rounded=0;whiteSpace=wrap;html=1;fillColor=#f5f5f5;fontColor=#333333;strokeColor=#666666;" vertex="1" parent="1">
          <mxGeometry x="444" y="511" width="184" height="256" as="geometry" />
        </mxCell>
        <mxCell id="bD5z26xpHcu51Z44uP9u-3" value="" style="rounded=0;whiteSpace=wrap;html=1;fillColor=#f9f7ed;strokeColor=#36393d;" vertex="1" parent="1">
          <mxGeometry x="194" y="511" width="180" height="256" as="geometry" />
        </mxCell>
        <mxCell id="bD5z26xpHcu51Z44uP9u-4" value="hashcode、age、bias、01" style="rounded=0;whiteSpace=wrap;html=1;fillColor=#d5e8d4;strokeColor=#82b366;" vertex="1" parent="1">
          <mxGeometry x="460" y="554" width="151" height="31" as="geometry" />
        </mxCell>
        <mxCell id="bD5z26xpHcu51Z44uP9u-5" value="class point" style="rounded=0;whiteSpace=wrap;html=1;" vertex="1" parent="1">
          <mxGeometry x="460" y="585" width="151" height="31" as="geometry" />
        </mxCell>
        <mxCell id="bD5z26xpHcu51Z44uP9u-6" value="array length" style="rounded=0;whiteSpace=wrap;html=1;dashed=1;" vertex="1" parent="1">
          <mxGeometry x="460" y="616" width="151" height="31" as="geometry" />
        </mxCell>
        <mxCell id="bD5z26xpHcu51Z44uP9u-7" value="实例数据" style="rounded=0;whiteSpace=wrap;html=1;" vertex="1" parent="1">
          <mxGeometry x="460" y="661" width="153" height="55" as="geometry" />
        </mxCell>
        <mxCell id="bD5z26xpHcu51Z44uP9u-8" value="对齐填充" style="rounded=0;whiteSpace=wrap;html=1;dashed=1;" vertex="1" parent="1">
          <mxGeometry x="460" y="730" width="153" height="22" as="geometry" />
        </mxCell>
        <mxCell id="bD5z26xpHcu51Z44uP9u-9" value="Object" style="text;html=1;align=center;verticalAlign=middle;whiteSpace=wrap;rounded=0;" vertex="1" parent="1">
          <mxGeometry x="444" y="511" width="60" height="30" as="geometry" />
        </mxCell>
        <mxCell id="bD5z26xpHcu51Z44uP9u-10" value="Thread-1" style="text;html=1;align=center;verticalAlign=middle;whiteSpace=wrap;rounded=0;" vertex="1" parent="1">
          <mxGeometry x="194" y="511" width="60" height="30" as="geometry" />
        </mxCell>
        <mxCell id="bD5z26xpHcu51Z44uP9u-11" value="" style="rounded=1;whiteSpace=wrap;html=1;" vertex="1" parent="1">
          <mxGeometry x="202" y="669" width="163.5" height="90" as="geometry" />
        </mxCell>
        <mxCell id="bD5z26xpHcu51Z44uP9u-12" value="锁记录的指针、00" style="rounded=0;whiteSpace=wrap;html=1;fillColor=#dae8fc;strokeColor=#6c8ebf;" vertex="1" parent="1">
          <mxGeometry x="207" y="683" width="154.5" height="20" as="geometry" />
        </mxCell>
        <mxCell id="bD5z26xpHcu51Z44uP9u-31" style="edgeStyle=orthogonalEdgeStyle;orthogonalLoop=1;jettySize=auto;html=1;exitX=0;exitY=0.5;exitDx=0;exitDy=0;entryX=0.5;entryY=0;entryDx=0;entryDy=0;endArrow=open;endFill=0;" edge="1" parent="1" source="bD5z26xpHcu51Z44uP9u-13" target="bD5z26xpHcu51Z44uP9u-9">
          <mxGeometry relative="1" as="geometry">
            <Array as="points">
              <mxPoint x="163" y="731" />
              <mxPoint x="163" y="491" />
              <mxPoint x="474" y="491" />
            </Array>
          </mxGeometry>
        </mxCell>
        <mxCell id="bD5z26xpHcu51Z44uP9u-13" value="Object Reference" style="rounded=0;whiteSpace=wrap;html=1;" vertex="1" parent="1">
          <mxGeometry x="208" y="721" width="153.5" height="20" as="geometry" />
        </mxCell>
        <mxCell id="bD5z26xpHcu51Z44uP9u-16" value="" style="rounded=0;whiteSpace=wrap;html=1;fillColor=#f5f5f5;fontColor=#333333;strokeColor=#666666;" vertex="1" parent="1">
          <mxGeometry x="437" y="929" width="184" height="256" as="geometry" />
        </mxCell>
        <mxCell id="bD5z26xpHcu51Z44uP9u-17" value="" style="rounded=0;whiteSpace=wrap;html=1;fillColor=#f9f7ed;strokeColor=#36393d;" vertex="1" parent="1">
          <mxGeometry x="187" y="929" width="180" height="256" as="geometry" />
        </mxCell>
        <mxCell id="bD5z26xpHcu51Z44uP9u-35" style="edgeStyle=orthogonalEdgeStyle;orthogonalLoop=1;jettySize=auto;html=1;exitX=0;exitY=0.5;exitDx=0;exitDy=0;entryX=1;entryY=0.5;entryDx=0;entryDy=0;" edge="1" parent="1" source="bD5z26xpHcu51Z44uP9u-18" target="bD5z26xpHcu51Z44uP9u-25">
          <mxGeometry relative="1" as="geometry" />
        </mxCell>
        <mxCell id="bD5z26xpHcu51Z44uP9u-18" value="锁记录的指针、00" style="rounded=0;whiteSpace=wrap;html=1;fillColor=#d5e8d4;strokeColor=#82b366;" vertex="1" parent="1">
          <mxGeometry x="453" y="972" width="151" height="31" as="geometry" />
        </mxCell>
        <mxCell id="bD5z26xpHcu51Z44uP9u-19" value="class point" style="rounded=0;whiteSpace=wrap;html=1;" vertex="1" parent="1">
          <mxGeometry x="453" y="1003" width="151" height="31" as="geometry" />
        </mxCell>
        <mxCell id="bD5z26xpHcu51Z44uP9u-20" value="array length" style="rounded=0;whiteSpace=wrap;html=1;dashed=1;" vertex="1" parent="1">
          <mxGeometry x="453" y="1034" width="151" height="31" as="geometry" />
        </mxCell>
        <mxCell id="bD5z26xpHcu51Z44uP9u-21" value="实例数据" style="rounded=0;whiteSpace=wrap;html=1;" vertex="1" parent="1">
          <mxGeometry x="453" y="1079" width="153" height="55" as="geometry" />
        </mxCell>
        <mxCell id="bD5z26xpHcu51Z44uP9u-22" value="对齐填充" style="rounded=0;whiteSpace=wrap;html=1;dashed=1;" vertex="1" parent="1">
          <mxGeometry x="453" y="1148" width="153" height="22" as="geometry" />
        </mxCell>
        <mxCell id="bD5z26xpHcu51Z44uP9u-23" value="Object" style="text;html=1;align=center;verticalAlign=middle;whiteSpace=wrap;rounded=0;" vertex="1" parent="1">
          <mxGeometry x="437" y="929" width="60" height="30" as="geometry" />
        </mxCell>
        <mxCell id="bD5z26xpHcu51Z44uP9u-24" value="Thread-1" style="text;html=1;align=center;verticalAlign=middle;whiteSpace=wrap;rounded=0;" vertex="1" parent="1">
          <mxGeometry x="187" y="929" width="60" height="30" as="geometry" />
        </mxCell>
        <mxCell id="bD5z26xpHcu51Z44uP9u-25" value="" style="rounded=1;whiteSpace=wrap;html=1;" vertex="1" parent="1">
          <mxGeometry x="195" y="1068" width="163.5" height="109" as="geometry" />
        </mxCell>
        <mxCell id="bD5z26xpHcu51Z44uP9u-26" value="hashcode、age、bias、01" style="rounded=0;whiteSpace=wrap;html=1;fillColor=#dae8fc;strokeColor=#6c8ebf;" vertex="1" parent="1">
          <mxGeometry x="200" y="1101" width="154.5" height="20" as="geometry" />
        </mxCell>
        <mxCell id="bD5z26xpHcu51Z44uP9u-37" style="edgeStyle=orthogonalEdgeStyle;orthogonalLoop=1;jettySize=auto;html=1;exitX=0;exitY=0.5;exitDx=0;exitDy=0;entryX=0.25;entryY=0;entryDx=0;entryDy=0;" edge="1" parent="1" source="bD5z26xpHcu51Z44uP9u-27" target="bD5z26xpHcu51Z44uP9u-23">
          <mxGeometry relative="1" as="geometry">
            <Array as="points">
              <mxPoint x="159" y="1149" />
              <mxPoint x="159" y="909" />
              <mxPoint x="452" y="909" />
            </Array>
          </mxGeometry>
        </mxCell>
        <mxCell id="bD5z26xpHcu51Z44uP9u-27" value="Object Reference" style="rounded=0;whiteSpace=wrap;html=1;" vertex="1" parent="1">
          <mxGeometry x="201" y="1139" width="153.5" height="20" as="geometry" />
        </mxCell>
        <mxCell id="bD5z26xpHcu51Z44uP9u-32" style="edgeStyle=orthogonalEdgeStyle;orthogonalLoop=1;jettySize=auto;html=1;exitX=1;exitY=0.5;exitDx=0;exitDy=0;entryX=0;entryY=0.5;entryDx=0;entryDy=0;dashed=1;" edge="1" parent="1" source="bD5z26xpHcu51Z44uP9u-12" target="bD5z26xpHcu51Z44uP9u-4">
          <mxGeometry relative="1" as="geometry" />
        </mxCell>
        <mxCell id="bD5z26xpHcu51Z44uP9u-33" style="edgeStyle=orthogonalEdgeStyle;orthogonalLoop=1;jettySize=auto;html=1;exitX=0;exitY=0.5;exitDx=0;exitDy=0;entryX=1;entryY=0.5;entryDx=0;entryDy=0;dashed=1;" edge="1" parent="1" source="bD5z26xpHcu51Z44uP9u-4" target="bD5z26xpHcu51Z44uP9u-12">
          <mxGeometry relative="1" as="geometry" />
        </mxCell>
        <mxCell id="bD5z26xpHcu51Z44uP9u-34" value="CAS" style="edgeLabel;html=1;align=center;verticalAlign=middle;resizable=0;points=[];" vertex="1" connectable="0" parent="bD5z26xpHcu51Z44uP9u-33">
          <mxGeometry x="-0.0009" y="-1" relative="1" as="geometry">
            <mxPoint as="offset" />
          </mxGeometry>
        </mxCell>
        <mxCell id="bD5z26xpHcu51Z44uP9u-36" value="锁记录" style="text;html=1;align=center;verticalAlign=middle;whiteSpace=wrap;rounded=0;" vertex="1" parent="1">
          <mxGeometry x="200" y="1068" width="60" height="30" as="geometry" />
        </mxCell>
        <mxCell id="bD5z26xpHcu51Z44uP9u-40" value="" style="rounded=0;whiteSpace=wrap;html=1;fillColor=#f5f5f5;fontColor=#333333;strokeColor=#666666;" vertex="1" parent="1">
          <mxGeometry x="437" y="1291" width="184" height="256" as="geometry" />
        </mxCell>
        <mxCell id="bD5z26xpHcu51Z44uP9u-41" value="" style="rounded=0;whiteSpace=wrap;html=1;fillColor=#f9f7ed;strokeColor=#36393d;" vertex="1" parent="1">
          <mxGeometry x="187" y="1279" width="180" height="268" as="geometry" />
        </mxCell>
        <mxCell id="bD5z26xpHcu51Z44uP9u-42" style="edgeStyle=orthogonalEdgeStyle;orthogonalLoop=1;jettySize=auto;html=1;exitX=0;exitY=0.5;exitDx=0;exitDy=0;entryX=1;entryY=0.5;entryDx=0;entryDy=0;" edge="1" parent="1" source="bD5z26xpHcu51Z44uP9u-43" target="bD5z26xpHcu51Z44uP9u-50">
          <mxGeometry relative="1" as="geometry" />
        </mxCell>
        <mxCell id="bD5z26xpHcu51Z44uP9u-43" value="锁记录的指针、00" style="rounded=0;whiteSpace=wrap;html=1;fillColor=#d5e8d4;strokeColor=#82b366;" vertex="1" parent="1">
          <mxGeometry x="453" y="1334" width="151" height="31" as="geometry" />
        </mxCell>
        <mxCell id="bD5z26xpHcu51Z44uP9u-44" value="class point" style="rounded=0;whiteSpace=wrap;html=1;" vertex="1" parent="1">
          <mxGeometry x="453" y="1365" width="151" height="31" as="geometry" />
        </mxCell>
        <mxCell id="bD5z26xpHcu51Z44uP9u-45" value="array length" style="rounded=0;whiteSpace=wrap;html=1;dashed=1;" vertex="1" parent="1">
          <mxGeometry x="453" y="1396" width="151" height="31" as="geometry" />
        </mxCell>
        <mxCell id="bD5z26xpHcu51Z44uP9u-46" value="实例数据" style="rounded=0;whiteSpace=wrap;html=1;" vertex="1" parent="1">
          <mxGeometry x="453" y="1441" width="153" height="55" as="geometry" />
        </mxCell>
        <mxCell id="bD5z26xpHcu51Z44uP9u-47" value="对齐填充" style="rounded=0;whiteSpace=wrap;html=1;dashed=1;" vertex="1" parent="1">
          <mxGeometry x="453" y="1510" width="153" height="22" as="geometry" />
        </mxCell>
        <mxCell id="bD5z26xpHcu51Z44uP9u-48" value="Object" style="text;html=1;align=center;verticalAlign=middle;whiteSpace=wrap;rounded=0;" vertex="1" parent="1">
          <mxGeometry x="437" y="1291" width="60" height="30" as="geometry" />
        </mxCell>
        <mxCell id="bD5z26xpHcu51Z44uP9u-49" value="Thread-1" style="text;html=1;align=center;verticalAlign=middle;whiteSpace=wrap;rounded=0;" vertex="1" parent="1">
          <mxGeometry x="187" y="1279" width="60" height="30" as="geometry" />
        </mxCell>
        <mxCell id="bD5z26xpHcu51Z44uP9u-50" value="" style="rounded=1;whiteSpace=wrap;html=1;" vertex="1" parent="1">
          <mxGeometry x="195" y="1430" width="163.5" height="109" as="geometry" />
        </mxCell>
        <mxCell id="bD5z26xpHcu51Z44uP9u-51" value="hashcode、age、bias、01" style="rounded=0;whiteSpace=wrap;html=1;fillColor=#dae8fc;strokeColor=#6c8ebf;" vertex="1" parent="1">
          <mxGeometry x="200" y="1463" width="154.5" height="20" as="geometry" />
        </mxCell>
        <mxCell id="bD5z26xpHcu51Z44uP9u-52" style="edgeStyle=orthogonalEdgeStyle;orthogonalLoop=1;jettySize=auto;html=1;exitX=0;exitY=0.5;exitDx=0;exitDy=0;entryX=0.25;entryY=0;entryDx=0;entryDy=0;" edge="1" parent="1" source="bD5z26xpHcu51Z44uP9u-53" target="bD5z26xpHcu51Z44uP9u-48">
          <mxGeometry relative="1" as="geometry">
            <Array as="points">
              <mxPoint x="159" y="1511" />
              <mxPoint x="159" y="1271" />
              <mxPoint x="452" y="1271" />
            </Array>
          </mxGeometry>
        </mxCell>
        <mxCell id="bD5z26xpHcu51Z44uP9u-53" value="Object Reference" style="rounded=0;whiteSpace=wrap;html=1;" vertex="1" parent="1">
          <mxGeometry x="201" y="1501" width="153.5" height="20" as="geometry" />
        </mxCell>
        <mxCell id="bD5z26xpHcu51Z44uP9u-54" value="锁记录" style="text;html=1;align=center;verticalAlign=middle;whiteSpace=wrap;rounded=0;" vertex="1" parent="1">
          <mxGeometry x="200" y="1430" width="60" height="30" as="geometry" />
        </mxCell>
        <mxCell id="bD5z26xpHcu51Z44uP9u-55" value="" style="rounded=1;whiteSpace=wrap;html=1;" vertex="1" parent="1">
          <mxGeometry x="191" y="1315" width="163.5" height="109" as="geometry" />
        </mxCell>
        <mxCell id="bD5z26xpHcu51Z44uP9u-56" value="null" style="rounded=0;whiteSpace=wrap;html=1;fillColor=#dae8fc;strokeColor=#6c8ebf;" vertex="1" parent="1">
          <mxGeometry x="196" y="1348" width="154.5" height="20" as="geometry" />
        </mxCell>
        <mxCell id="bD5z26xpHcu51Z44uP9u-58" style="edgeStyle=orthogonalEdgeStyle;orthogonalLoop=1;jettySize=auto;html=1;exitX=0;exitY=0.5;exitDx=0;exitDy=0;entryX=0.25;entryY=0;entryDx=0;entryDy=0;" edge="1" parent="1" source="bD5z26xpHcu51Z44uP9u-57" target="bD5z26xpHcu51Z44uP9u-48">
          <mxGeometry relative="1" as="geometry">
            <Array as="points">
              <mxPoint x="145" y="1396" />
              <mxPoint x="145" y="1271" />
              <mxPoint x="452" y="1271" />
            </Array>
          </mxGeometry>
        </mxCell>
        <mxCell id="bD5z26xpHcu51Z44uP9u-57" value="Object Reference" style="rounded=0;whiteSpace=wrap;html=1;" vertex="1" parent="1">
          <mxGeometry x="197" y="1386" width="153.5" height="20" as="geometry" />
        </mxCell>
        <mxCell id="bD5z26xpHcu51Z44uP9u-59" value="" style="rounded=0;whiteSpace=wrap;html=1;fillColor=#f5f5f5;fontColor=#333333;strokeColor=#666666;" vertex="1" parent="1">
          <mxGeometry x="441" y="1752" width="184" height="256" as="geometry" />
        </mxCell>
        <mxCell id="bD5z26xpHcu51Z44uP9u-60" value="" style="rounded=0;whiteSpace=wrap;html=1;fillColor=#f9f7ed;strokeColor=#36393d;" vertex="1" parent="1">
          <mxGeometry x="191" y="1740" width="180" height="268" as="geometry" />
        </mxCell>
        <mxCell id="bD5z26xpHcu51Z44uP9u-61" style="edgeStyle=orthogonalEdgeStyle;orthogonalLoop=1;jettySize=auto;html=1;exitX=0;exitY=0.5;exitDx=0;exitDy=0;entryX=1;entryY=0.5;entryDx=0;entryDy=0;" edge="1" parent="1" source="bD5z26xpHcu51Z44uP9u-62" target="bD5z26xpHcu51Z44uP9u-69">
          <mxGeometry relative="1" as="geometry" />
        </mxCell>
        <mxCell id="bD5z26xpHcu51Z44uP9u-62" value="锁记录的指针、00" style="rounded=0;whiteSpace=wrap;html=1;fillColor=#d5e8d4;strokeColor=#82b366;" vertex="1" parent="1">
          <mxGeometry x="457" y="1795" width="151" height="31" as="geometry" />
        </mxCell>
        <mxCell id="bD5z26xpHcu51Z44uP9u-63" value="class point" style="rounded=0;whiteSpace=wrap;html=1;" vertex="1" parent="1">
          <mxGeometry x="457" y="1826" width="151" height="31" as="geometry" />
        </mxCell>
        <mxCell id="bD5z26xpHcu51Z44uP9u-64" value="array length" style="rounded=0;whiteSpace=wrap;html=1;dashed=1;" vertex="1" parent="1">
          <mxGeometry x="457" y="1857" width="151" height="31" as="geometry" />
        </mxCell>
        <mxCell id="bD5z26xpHcu51Z44uP9u-65" value="实例数据" style="rounded=0;whiteSpace=wrap;html=1;" vertex="1" parent="1">
          <mxGeometry x="457" y="1902" width="153" height="55" as="geometry" />
        </mxCell>
        <mxCell id="bD5z26xpHcu51Z44uP9u-66" value="对齐填充" style="rounded=0;whiteSpace=wrap;html=1;dashed=1;" vertex="1" parent="1">
          <mxGeometry x="457" y="1971" width="153" height="22" as="geometry" />
        </mxCell>
        <mxCell id="bD5z26xpHcu51Z44uP9u-67" value="Object" style="text;html=1;align=center;verticalAlign=middle;whiteSpace=wrap;rounded=0;" vertex="1" parent="1">
          <mxGeometry x="441" y="1752" width="60" height="30" as="geometry" />
        </mxCell>
        <mxCell id="bD5z26xpHcu51Z44uP9u-68" value="Thread-1" style="text;html=1;align=center;verticalAlign=middle;whiteSpace=wrap;rounded=0;" vertex="1" parent="1">
          <mxGeometry x="191" y="1740" width="60" height="30" as="geometry" />
        </mxCell>
        <mxCell id="bD5z26xpHcu51Z44uP9u-69" value="" style="rounded=1;whiteSpace=wrap;html=1;" vertex="1" parent="1">
          <mxGeometry x="199" y="1891" width="163.5" height="109" as="geometry" />
        </mxCell>
        <mxCell id="bD5z26xpHcu51Z44uP9u-70" value="hashcode、age、bias、01" style="rounded=0;whiteSpace=wrap;html=1;fillColor=#dae8fc;strokeColor=#6c8ebf;" vertex="1" parent="1">
          <mxGeometry x="204" y="1924" width="154.5" height="20" as="geometry" />
        </mxCell>
        <mxCell id="bD5z26xpHcu51Z44uP9u-71" style="edgeStyle=orthogonalEdgeStyle;orthogonalLoop=1;jettySize=auto;html=1;exitX=0;exitY=0.5;exitDx=0;exitDy=0;entryX=0.25;entryY=0;entryDx=0;entryDy=0;" edge="1" parent="1" source="bD5z26xpHcu51Z44uP9u-72" target="bD5z26xpHcu51Z44uP9u-67">
          <mxGeometry relative="1" as="geometry">
            <Array as="points">
              <mxPoint x="163" y="1972" />
              <mxPoint x="163" y="1732" />
              <mxPoint x="456" y="1732" />
            </Array>
          </mxGeometry>
        </mxCell>
        <mxCell id="bD5z26xpHcu51Z44uP9u-72" value="Object Reference" style="rounded=0;whiteSpace=wrap;html=1;" vertex="1" parent="1">
          <mxGeometry x="205" y="1962" width="153.5" height="20" as="geometry" />
        </mxCell>
        <mxCell id="bD5z26xpHcu51Z44uP9u-73" value="锁记录" style="text;html=1;align=center;verticalAlign=middle;whiteSpace=wrap;rounded=0;" vertex="1" parent="1">
          <mxGeometry x="204" y="1891" width="60" height="30" as="geometry" />
        </mxCell>
      </root>
    </mxGraphModel>
  </diagram>
  <diagram id="SfB0UQEQUzmBwaHps_2s" name="AQS">
    <mxGraphModel dx="1185" dy="674" grid="0" gridSize="10" guides="1" tooltips="1" connect="1" arrows="1" fold="1" page="1" pageScale="1" pageWidth="1169" pageHeight="1654" math="0" shadow="0">
      <root>
        <mxCell id="0" />
        <mxCell id="1" parent="0" />
        <mxCell id="3Et7Sss7q4iy1J4CAbvU-28" value="" style="rounded=0;whiteSpace=wrap;html=1;fontFamily=Comic Sans MS;glass=1;shadow=0;" vertex="1" parent="1">
          <mxGeometry x="90" y="239" width="720" height="602" as="geometry" />
        </mxCell>
        <mxCell id="3Et7Sss7q4iy1J4CAbvU-1" value="" style="rounded=1;whiteSpace=wrap;html=1;fontFamily=Comic Sans MS;" vertex="1" parent="1">
          <mxGeometry x="256" y="326" width="135" height="216" as="geometry" />
        </mxCell>
        <mxCell id="3Et7Sss7q4iy1J4CAbvU-2" value="Node" style="text;html=1;align=center;verticalAlign=middle;whiteSpace=wrap;rounded=0;fontFamily=Comic Sans MS;" vertex="1" parent="1">
          <mxGeometry x="254" y="329" width="60" height="30" as="geometry" />
        </mxCell>
        <mxCell id="3Et7Sss7q4iy1J4CAbvU-3" value="waitStatus" style="rounded=0;whiteSpace=wrap;html=1;fontFamily=Comic Sans MS;" vertex="1" parent="1">
          <mxGeometry x="263" y="382" width="121" height="21" as="geometry" />
        </mxCell>
        <mxCell id="3Et7Sss7q4iy1J4CAbvU-4" value="prev" style="rounded=0;whiteSpace=wrap;html=1;fontFamily=Comic Sans MS;" vertex="1" parent="1">
          <mxGeometry x="263" y="413" width="121" height="21" as="geometry" />
        </mxCell>
        <mxCell id="3Et7Sss7q4iy1J4CAbvU-5" value="next" style="rounded=0;whiteSpace=wrap;html=1;fontFamily=Comic Sans MS;" vertex="1" parent="1">
          <mxGeometry x="263" y="442" width="121" height="21" as="geometry" />
        </mxCell>
        <mxCell id="3Et7Sss7q4iy1J4CAbvU-6" value="thread" style="rounded=0;whiteSpace=wrap;html=1;fontFamily=Comic Sans MS;" vertex="1" parent="1">
          <mxGeometry x="263" y="472" width="121" height="21" as="geometry" />
        </mxCell>
        <mxCell id="3Et7Sss7q4iy1J4CAbvU-9" value="nextWaiter" style="rounded=0;whiteSpace=wrap;html=1;fontFamily=Comic Sans MS;" vertex="1" parent="1">
          <mxGeometry x="263" y="501" width="121" height="21" as="geometry" />
        </mxCell>
        <mxCell id="3Et7Sss7q4iy1J4CAbvU-11" style="edgeStyle=orthogonalEdgeStyle;rounded=0;orthogonalLoop=1;jettySize=auto;html=1;exitX=0.5;exitY=1;exitDx=0;exitDy=0;fontFamily=Comic Sans MS;" edge="1" parent="1" source="3Et7Sss7q4iy1J4CAbvU-1" target="3Et7Sss7q4iy1J4CAbvU-1">
          <mxGeometry relative="1" as="geometry" />
        </mxCell>
        <mxCell id="3Et7Sss7q4iy1J4CAbvU-12" value="" style="rounded=1;whiteSpace=wrap;html=1;fontFamily=Comic Sans MS;" vertex="1" parent="1">
          <mxGeometry x="435" y="325.43" width="135" height="216" as="geometry" />
        </mxCell>
        <mxCell id="3Et7Sss7q4iy1J4CAbvU-13" value="Node" style="text;html=1;align=center;verticalAlign=middle;whiteSpace=wrap;rounded=0;fontFamily=Comic Sans MS;" vertex="1" parent="1">
          <mxGeometry x="433" y="328.43" width="60" height="30" as="geometry" />
        </mxCell>
        <mxCell id="3Et7Sss7q4iy1J4CAbvU-14" value="waitStatus" style="rounded=0;whiteSpace=wrap;html=1;fontFamily=Comic Sans MS;" vertex="1" parent="1">
          <mxGeometry x="442" y="381.43" width="121" height="21" as="geometry" />
        </mxCell>
        <mxCell id="3Et7Sss7q4iy1J4CAbvU-15" value="prev" style="rounded=0;whiteSpace=wrap;html=1;fontFamily=Comic Sans MS;" vertex="1" parent="1">
          <mxGeometry x="442" y="412.43" width="121" height="21" as="geometry" />
        </mxCell>
        <mxCell id="3Et7Sss7q4iy1J4CAbvU-16" value="next" style="rounded=0;whiteSpace=wrap;html=1;fontFamily=Comic Sans MS;" vertex="1" parent="1">
          <mxGeometry x="442" y="441.43" width="121" height="21" as="geometry" />
        </mxCell>
        <mxCell id="3Et7Sss7q4iy1J4CAbvU-17" value="thread" style="rounded=0;whiteSpace=wrap;html=1;fontFamily=Comic Sans MS;" vertex="1" parent="1">
          <mxGeometry x="442" y="471.43" width="121" height="21" as="geometry" />
        </mxCell>
        <mxCell id="3Et7Sss7q4iy1J4CAbvU-18" value="nextWaiter" style="rounded=0;whiteSpace=wrap;html=1;fontFamily=Comic Sans MS;" vertex="1" parent="1">
          <mxGeometry x="442" y="500.43" width="121" height="21" as="geometry" />
        </mxCell>
        <mxCell id="3Et7Sss7q4iy1J4CAbvU-19" style="edgeStyle=orthogonalEdgeStyle;rounded=0;orthogonalLoop=1;jettySize=auto;html=1;exitX=0.5;exitY=1;exitDx=0;exitDy=0;fontFamily=Comic Sans MS;" edge="1" source="3Et7Sss7q4iy1J4CAbvU-12" target="3Et7Sss7q4iy1J4CAbvU-12" parent="1">
          <mxGeometry relative="1" as="geometry" />
        </mxCell>
        <mxCell id="3Et7Sss7q4iy1J4CAbvU-20" value="" style="rounded=1;whiteSpace=wrap;html=1;fontFamily=Comic Sans MS;" vertex="1" parent="1">
          <mxGeometry x="623" y="324.86" width="135" height="216" as="geometry" />
        </mxCell>
        <mxCell id="3Et7Sss7q4iy1J4CAbvU-21" value="Node" style="text;html=1;align=center;verticalAlign=middle;whiteSpace=wrap;rounded=0;fontFamily=Comic Sans MS;" vertex="1" parent="1">
          <mxGeometry x="621" y="327.86" width="60" height="30" as="geometry" />
        </mxCell>
        <mxCell id="3Et7Sss7q4iy1J4CAbvU-22" value="waitStatus" style="rounded=0;whiteSpace=wrap;html=1;fontFamily=Comic Sans MS;" vertex="1" parent="1">
          <mxGeometry x="630" y="380.86" width="121" height="21" as="geometry" />
        </mxCell>
        <mxCell id="3Et7Sss7q4iy1J4CAbvU-39" style="rounded=0;orthogonalLoop=1;jettySize=auto;html=1;exitX=0;exitY=0.5;exitDx=0;exitDy=0;entryX=1;entryY=0.5;entryDx=0;entryDy=0;fontFamily=Comic Sans MS;" edge="1" parent="1" source="3Et7Sss7q4iy1J4CAbvU-23" target="3Et7Sss7q4iy1J4CAbvU-15">
          <mxGeometry relative="1" as="geometry" />
        </mxCell>
        <mxCell id="3Et7Sss7q4iy1J4CAbvU-23" value="prev" style="rounded=0;whiteSpace=wrap;html=1;fontFamily=Comic Sans MS;" vertex="1" parent="1">
          <mxGeometry x="630" y="411.86" width="121" height="21" as="geometry" />
        </mxCell>
        <mxCell id="3Et7Sss7q4iy1J4CAbvU-24" value="next" style="rounded=0;whiteSpace=wrap;html=1;fontFamily=Comic Sans MS;" vertex="1" parent="1">
          <mxGeometry x="630" y="440.86" width="121" height="21" as="geometry" />
        </mxCell>
        <mxCell id="3Et7Sss7q4iy1J4CAbvU-25" value="thread" style="rounded=0;whiteSpace=wrap;html=1;fontFamily=Comic Sans MS;" vertex="1" parent="1">
          <mxGeometry x="630" y="470.86" width="121" height="21" as="geometry" />
        </mxCell>
        <mxCell id="3Et7Sss7q4iy1J4CAbvU-26" value="nextWaiter" style="rounded=0;whiteSpace=wrap;html=1;fontFamily=Comic Sans MS;" vertex="1" parent="1">
          <mxGeometry x="630" y="499.86" width="121" height="21" as="geometry" />
        </mxCell>
        <mxCell id="3Et7Sss7q4iy1J4CAbvU-27" style="edgeStyle=orthogonalEdgeStyle;rounded=0;orthogonalLoop=1;jettySize=auto;html=1;exitX=0.5;exitY=1;exitDx=0;exitDy=0;fontFamily=Comic Sans MS;" edge="1" source="3Et7Sss7q4iy1J4CAbvU-20" target="3Et7Sss7q4iy1J4CAbvU-20" parent="1">
          <mxGeometry relative="1" as="geometry" />
        </mxCell>
        <mxCell id="3Et7Sss7q4iy1J4CAbvU-29" value="AQS" style="text;html=1;align=center;verticalAlign=middle;whiteSpace=wrap;rounded=0;fontFamily=Comic Sans MS;" vertex="1" parent="1">
          <mxGeometry x="90" y="239" width="60" height="30" as="geometry" />
        </mxCell>
        <mxCell id="3Et7Sss7q4iy1J4CAbvU-30" value="head" style="text;html=1;align=center;verticalAlign=middle;whiteSpace=wrap;rounded=0;fontFamily=Comic Sans MS;" vertex="1" parent="1">
          <mxGeometry x="289" y="255" width="60" height="30" as="geometry" />
        </mxCell>
        <mxCell id="3Et7Sss7q4iy1J4CAbvU-31" style="edgeStyle=orthogonalEdgeStyle;rounded=0;orthogonalLoop=1;jettySize=auto;html=1;exitX=0.5;exitY=1;exitDx=0;exitDy=0;entryX=0.467;entryY=0.012;entryDx=0;entryDy=0;entryPerimeter=0;fontFamily=Comic Sans MS;" edge="1" parent="1" source="3Et7Sss7q4iy1J4CAbvU-30" target="3Et7Sss7q4iy1J4CAbvU-1">
          <mxGeometry relative="1" as="geometry" />
        </mxCell>
        <mxCell id="3Et7Sss7q4iy1J4CAbvU-35" style="edgeStyle=orthogonalEdgeStyle;rounded=0;orthogonalLoop=1;jettySize=auto;html=1;exitX=0.5;exitY=1;exitDx=0;exitDy=0;entryX=0.5;entryY=0;entryDx=0;entryDy=0;fontFamily=Comic Sans MS;" edge="1" parent="1" source="3Et7Sss7q4iy1J4CAbvU-34" target="3Et7Sss7q4iy1J4CAbvU-20">
          <mxGeometry relative="1" as="geometry" />
        </mxCell>
        <mxCell id="3Et7Sss7q4iy1J4CAbvU-34" value="tail" style="text;html=1;align=center;verticalAlign=middle;whiteSpace=wrap;rounded=0;fontFamily=Comic Sans MS;" vertex="1" parent="1">
          <mxGeometry x="660.5" y="255" width="60" height="30" as="geometry" />
        </mxCell>
        <mxCell id="3Et7Sss7q4iy1J4CAbvU-36" style="rounded=0;orthogonalLoop=1;jettySize=auto;html=1;exitX=1;exitY=0.5;exitDx=0;exitDy=0;entryX=-0.008;entryY=0.589;entryDx=0;entryDy=0;entryPerimeter=0;fontFamily=Comic Sans MS;" edge="1" parent="1" source="3Et7Sss7q4iy1J4CAbvU-5" target="3Et7Sss7q4iy1J4CAbvU-12">
          <mxGeometry relative="1" as="geometry" />
        </mxCell>
        <mxCell id="3Et7Sss7q4iy1J4CAbvU-37" style="rounded=0;orthogonalLoop=1;jettySize=auto;html=1;exitX=1;exitY=0.5;exitDx=0;exitDy=0;entryX=-0.004;entryY=0.586;entryDx=0;entryDy=0;entryPerimeter=0;fontFamily=Comic Sans MS;" edge="1" parent="1" source="3Et7Sss7q4iy1J4CAbvU-16" target="3Et7Sss7q4iy1J4CAbvU-20">
          <mxGeometry relative="1" as="geometry" />
        </mxCell>
        <mxCell id="3Et7Sss7q4iy1J4CAbvU-38" style="rounded=0;orthogonalLoop=1;jettySize=auto;html=1;exitX=0;exitY=0.5;exitDx=0;exitDy=0;entryX=0.996;entryY=0.45;entryDx=0;entryDy=0;entryPerimeter=0;fontFamily=Comic Sans MS;" edge="1" parent="1" source="3Et7Sss7q4iy1J4CAbvU-15" target="3Et7Sss7q4iy1J4CAbvU-1">
          <mxGeometry relative="1" as="geometry" />
        </mxCell>
        <mxCell id="3Et7Sss7q4iy1J4CAbvU-42" value="" style="html=1;shadow=0;dashed=1;align=center;verticalAlign=middle;shape=mxgraph.arrows2.arrow;dy=0.6;dx=40;notch=0;fontFamily=Comic Sans MS;" vertex="1" parent="1">
          <mxGeometry x="169" y="404.5" width="80" height="43" as="geometry" />
        </mxCell>
        <mxCell id="3Et7Sss7q4iy1J4CAbvU-43" value="Sync Queue" style="text;html=1;align=center;verticalAlign=middle;whiteSpace=wrap;rounded=0;fontFamily=Comic Sans MS;" vertex="1" parent="1">
          <mxGeometry x="90" y="411" width="72" height="30" as="geometry" />
        </mxCell>
        <mxCell id="3Et7Sss7q4iy1J4CAbvU-44" value="" style="rounded=1;whiteSpace=wrap;html=1;fontFamily=Comic Sans MS;" vertex="1" parent="1">
          <mxGeometry x="256" y="590" width="135" height="216" as="geometry" />
        </mxCell>
        <mxCell id="3Et7Sss7q4iy1J4CAbvU-45" value="Node" style="text;html=1;align=center;verticalAlign=middle;whiteSpace=wrap;rounded=0;fontFamily=Comic Sans MS;" vertex="1" parent="1">
          <mxGeometry x="254" y="593" width="60" height="30" as="geometry" />
        </mxCell>
        <mxCell id="3Et7Sss7q4iy1J4CAbvU-46" value="waitStatus" style="rounded=0;whiteSpace=wrap;html=1;fontFamily=Comic Sans MS;" vertex="1" parent="1">
          <mxGeometry x="263" y="646" width="121" height="21" as="geometry" />
        </mxCell>
        <mxCell id="3Et7Sss7q4iy1J4CAbvU-47" value="prev" style="rounded=0;whiteSpace=wrap;html=1;fontFamily=Comic Sans MS;" vertex="1" parent="1">
          <mxGeometry x="263" y="677" width="121" height="21" as="geometry" />
        </mxCell>
        <mxCell id="3Et7Sss7q4iy1J4CAbvU-48" value="next" style="rounded=0;whiteSpace=wrap;html=1;fontFamily=Comic Sans MS;" vertex="1" parent="1">
          <mxGeometry x="263" y="706" width="121" height="21" as="geometry" />
        </mxCell>
        <mxCell id="3Et7Sss7q4iy1J4CAbvU-49" value="thread" style="rounded=0;whiteSpace=wrap;html=1;fontFamily=Comic Sans MS;" vertex="1" parent="1">
          <mxGeometry x="263" y="736" width="121" height="21" as="geometry" />
        </mxCell>
        <mxCell id="3Et7Sss7q4iy1J4CAbvU-50" value="nextWaiter" style="rounded=0;whiteSpace=wrap;html=1;fontFamily=Comic Sans MS;" vertex="1" parent="1">
          <mxGeometry x="263" y="765" width="121" height="21" as="geometry" />
        </mxCell>
        <mxCell id="3Et7Sss7q4iy1J4CAbvU-52" value="" style="rounded=1;whiteSpace=wrap;html=1;fontFamily=Comic Sans MS;" vertex="1" parent="1">
          <mxGeometry x="437" y="590" width="135" height="216" as="geometry" />
        </mxCell>
        <mxCell id="3Et7Sss7q4iy1J4CAbvU-53" value="Node" style="text;html=1;align=center;verticalAlign=middle;whiteSpace=wrap;rounded=0;fontFamily=Comic Sans MS;" vertex="1" parent="1">
          <mxGeometry x="435" y="593" width="60" height="30" as="geometry" />
        </mxCell>
        <mxCell id="3Et7Sss7q4iy1J4CAbvU-54" value="waitStatus" style="rounded=0;whiteSpace=wrap;html=1;fontFamily=Comic Sans MS;" vertex="1" parent="1">
          <mxGeometry x="444" y="646" width="121" height="21" as="geometry" />
        </mxCell>
        <mxCell id="3Et7Sss7q4iy1J4CAbvU-55" value="prev" style="rounded=0;whiteSpace=wrap;html=1;fontFamily=Comic Sans MS;" vertex="1" parent="1">
          <mxGeometry x="444" y="677" width="121" height="21" as="geometry" />
        </mxCell>
        <mxCell id="3Et7Sss7q4iy1J4CAbvU-56" value="next" style="rounded=0;whiteSpace=wrap;html=1;fontFamily=Comic Sans MS;" vertex="1" parent="1">
          <mxGeometry x="444" y="706" width="121" height="21" as="geometry" />
        </mxCell>
        <mxCell id="3Et7Sss7q4iy1J4CAbvU-57" value="thread" style="rounded=0;whiteSpace=wrap;html=1;fontFamily=Comic Sans MS;" vertex="1" parent="1">
          <mxGeometry x="444" y="736" width="121" height="21" as="geometry" />
        </mxCell>
        <mxCell id="3Et7Sss7q4iy1J4CAbvU-58" value="nextWaiter" style="rounded=0;whiteSpace=wrap;html=1;fontFamily=Comic Sans MS;" vertex="1" parent="1">
          <mxGeometry x="444" y="765" width="121" height="21" as="geometry" />
        </mxCell>
        <mxCell id="3Et7Sss7q4iy1J4CAbvU-59" value="" style="rounded=1;whiteSpace=wrap;html=1;fontFamily=Comic Sans MS;" vertex="1" parent="1">
          <mxGeometry x="624" y="590" width="135" height="216" as="geometry" />
        </mxCell>
        <mxCell id="3Et7Sss7q4iy1J4CAbvU-60" value="Node" style="text;html=1;align=center;verticalAlign=middle;whiteSpace=wrap;rounded=0;fontFamily=Comic Sans MS;" vertex="1" parent="1">
          <mxGeometry x="622" y="593" width="60" height="30" as="geometry" />
        </mxCell>
        <mxCell id="3Et7Sss7q4iy1J4CAbvU-61" value="waitStatus" style="rounded=0;whiteSpace=wrap;html=1;fontFamily=Comic Sans MS;" vertex="1" parent="1">
          <mxGeometry x="631" y="646" width="121" height="21" as="geometry" />
        </mxCell>
        <mxCell id="3Et7Sss7q4iy1J4CAbvU-62" value="prev" style="rounded=0;whiteSpace=wrap;html=1;fontFamily=Comic Sans MS;" vertex="1" parent="1">
          <mxGeometry x="631" y="677" width="121" height="21" as="geometry" />
        </mxCell>
        <mxCell id="3Et7Sss7q4iy1J4CAbvU-63" value="next" style="rounded=0;whiteSpace=wrap;html=1;fontFamily=Comic Sans MS;" vertex="1" parent="1">
          <mxGeometry x="631" y="706" width="121" height="21" as="geometry" />
        </mxCell>
        <mxCell id="3Et7Sss7q4iy1J4CAbvU-64" value="thread" style="rounded=0;whiteSpace=wrap;html=1;fontFamily=Comic Sans MS;" vertex="1" parent="1">
          <mxGeometry x="631" y="736" width="121" height="21" as="geometry" />
        </mxCell>
        <mxCell id="3Et7Sss7q4iy1J4CAbvU-65" value="nextWaiter" style="rounded=0;whiteSpace=wrap;html=1;fontFamily=Comic Sans MS;" vertex="1" parent="1">
          <mxGeometry x="631" y="765" width="121" height="21" as="geometry" />
        </mxCell>
        <mxCell id="3Et7Sss7q4iy1J4CAbvU-66" style="rounded=0;orthogonalLoop=1;jettySize=auto;html=1;exitX=1;exitY=0.5;exitDx=0;exitDy=0;entryX=-0.011;entryY=0.854;entryDx=0;entryDy=0;entryPerimeter=0;fontFamily=Comic Sans MS;" edge="1" parent="1" source="3Et7Sss7q4iy1J4CAbvU-50" target="3Et7Sss7q4iy1J4CAbvU-52">
          <mxGeometry relative="1" as="geometry" />
        </mxCell>
        <mxCell id="3Et7Sss7q4iy1J4CAbvU-68" style="rounded=0;orthogonalLoop=1;jettySize=auto;html=1;exitX=1;exitY=0.5;exitDx=0;exitDy=0;entryX=0.01;entryY=0.862;entryDx=0;entryDy=0;entryPerimeter=0;fontFamily=Comic Sans MS;" edge="1" parent="1" source="3Et7Sss7q4iy1J4CAbvU-58" target="3Et7Sss7q4iy1J4CAbvU-59">
          <mxGeometry relative="1" as="geometry" />
        </mxCell>
        <mxCell id="3Et7Sss7q4iy1J4CAbvU-69" value="Wait Queue" style="text;html=1;align=center;verticalAlign=middle;whiteSpace=wrap;rounded=0;fontFamily=Comic Sans MS;" vertex="1" parent="1">
          <mxGeometry x="95" y="690.5" width="72" height="30" as="geometry" />
        </mxCell>
        <mxCell id="3Et7Sss7q4iy1J4CAbvU-70" value="" style="html=1;shadow=0;dashed=1;align=center;verticalAlign=middle;shape=mxgraph.arrows2.arrow;dy=0.6;dx=40;notch=0;fontFamily=Comic Sans MS;" vertex="1" parent="1">
          <mxGeometry x="174" y="684" width="80" height="43" as="geometry" />
        </mxCell>
      </root>
    </mxGraphModel>
  </diagram>
  <diagram id="9Qw_wXODzvOcP-SVMgsl" name="Condition">
    <mxGraphModel dx="1185" dy="674" grid="0" gridSize="10" guides="1" tooltips="1" connect="1" arrows="1" fold="1" page="1" pageScale="1" pageWidth="1169" pageHeight="1654" math="0" shadow="0">
      <root>
        <mxCell id="0" />
        <mxCell id="1" parent="0" />
        <mxCell id="IjkHnwHbqVaIJTkmYXzc-38" value="" style="rounded=0;whiteSpace=wrap;html=1;dashed=1;fontFamily=Comic Sans MS;fontStyle=0;fillColor=#f9f7ed;strokeColor=#36393d;fontSize=17;" vertex="1" parent="1">
          <mxGeometry x="293" y="585" width="445" height="128" as="geometry" />
        </mxCell>
        <mxCell id="IjkHnwHbqVaIJTkmYXzc-13" value="" style="rounded=0;whiteSpace=wrap;html=1;dashed=1;fontFamily=Comic Sans MS;fontStyle=0;fillColor=#f5f5f5;fontColor=#333333;strokeColor=#666666;fontSize=17;" vertex="1" parent="1">
          <mxGeometry x="293" y="389" width="602" height="128" as="geometry" />
        </mxCell>
        <mxCell id="IjkHnwHbqVaIJTkmYXzc-8" style="edgeStyle=orthogonalEdgeStyle;rounded=0;orthogonalLoop=1;jettySize=auto;html=1;exitX=0;exitY=0.75;exitDx=0;exitDy=0;entryX=1;entryY=0.75;entryDx=0;entryDy=0;strokeColor=#808080;fontFamily=Comic Sans MS;fontStyle=0;fontSize=17;" edge="1" parent="1" source="IjkHnwHbqVaIJTkmYXzc-1" target="IjkHnwHbqVaIJTkmYXzc-4">
          <mxGeometry relative="1" as="geometry" />
        </mxCell>
        <mxCell id="IjkHnwHbqVaIJTkmYXzc-9" style="edgeStyle=orthogonalEdgeStyle;rounded=0;orthogonalLoop=1;jettySize=auto;html=1;exitX=1;exitY=0.25;exitDx=0;exitDy=0;entryX=0;entryY=0.25;entryDx=0;entryDy=0;strokeColor=#808080;fontFamily=Comic Sans MS;fontStyle=0;fontSize=17;" edge="1" parent="1" source="IjkHnwHbqVaIJTkmYXzc-1" target="IjkHnwHbqVaIJTkmYXzc-2">
          <mxGeometry relative="1" as="geometry" />
        </mxCell>
        <mxCell id="IjkHnwHbqVaIJTkmYXzc-1" value="Node" style="rounded=1;whiteSpace=wrap;html=1;fillColor=#CCFFFF;strokeColor=#82b366;fontFamily=Comic Sans MS;fontStyle=0;fontSize=17;" vertex="1" parent="1">
          <mxGeometry x="456" y="425" width="85" height="50" as="geometry" />
        </mxCell>
        <mxCell id="IjkHnwHbqVaIJTkmYXzc-10" style="edgeStyle=orthogonalEdgeStyle;rounded=0;orthogonalLoop=1;jettySize=auto;html=1;exitX=0;exitY=0.75;exitDx=0;exitDy=0;entryX=1;entryY=0.75;entryDx=0;entryDy=0;strokeColor=#808080;fontFamily=Comic Sans MS;fontStyle=0;fontSize=17;" edge="1" parent="1" source="IjkHnwHbqVaIJTkmYXzc-2" target="IjkHnwHbqVaIJTkmYXzc-1">
          <mxGeometry relative="1" as="geometry" />
        </mxCell>
        <mxCell id="IjkHnwHbqVaIJTkmYXzc-11" style="edgeStyle=orthogonalEdgeStyle;rounded=0;orthogonalLoop=1;jettySize=auto;html=1;exitX=1;exitY=0.25;exitDx=0;exitDy=0;entryX=0;entryY=0.25;entryDx=0;entryDy=0;strokeColor=#808080;fontFamily=Comic Sans MS;fontStyle=0;fontSize=17;" edge="1" parent="1" source="IjkHnwHbqVaIJTkmYXzc-2" target="IjkHnwHbqVaIJTkmYXzc-3">
          <mxGeometry relative="1" as="geometry" />
        </mxCell>
        <mxCell id="IjkHnwHbqVaIJTkmYXzc-2" value="Node" style="rounded=1;whiteSpace=wrap;html=1;fillColor=#CCFFFF;strokeColor=#82b366;fontFamily=Comic Sans MS;fontStyle=0;fontSize=17;" vertex="1" parent="1">
          <mxGeometry x="585" y="425" width="85" height="50" as="geometry" />
        </mxCell>
        <mxCell id="IjkHnwHbqVaIJTkmYXzc-12" style="edgeStyle=orthogonalEdgeStyle;rounded=0;orthogonalLoop=1;jettySize=auto;html=1;exitX=0;exitY=0.75;exitDx=0;exitDy=0;entryX=1;entryY=0.75;entryDx=0;entryDy=0;strokeColor=#808080;fontFamily=Comic Sans MS;fontStyle=0;fontSize=17;" edge="1" parent="1" source="IjkHnwHbqVaIJTkmYXzc-3" target="IjkHnwHbqVaIJTkmYXzc-2">
          <mxGeometry relative="1" as="geometry" />
        </mxCell>
        <mxCell id="IjkHnwHbqVaIJTkmYXzc-3" value="Node" style="rounded=1;whiteSpace=wrap;html=1;fillColor=#CCFFFF;strokeColor=#82b366;fontFamily=Comic Sans MS;fontStyle=0;fontSize=17;" vertex="1" parent="1">
          <mxGeometry x="714" y="425" width="85" height="50" as="geometry" />
        </mxCell>
        <mxCell id="IjkHnwHbqVaIJTkmYXzc-7" style="edgeStyle=orthogonalEdgeStyle;rounded=0;orthogonalLoop=1;jettySize=auto;html=1;exitX=1;exitY=0.25;exitDx=0;exitDy=0;entryX=0;entryY=0.25;entryDx=0;entryDy=0;strokeColor=#808080;fontFamily=Comic Sans MS;fontStyle=0;fontSize=17;" edge="1" parent="1" source="IjkHnwHbqVaIJTkmYXzc-4" target="IjkHnwHbqVaIJTkmYXzc-1">
          <mxGeometry relative="1" as="geometry" />
        </mxCell>
        <mxCell id="IjkHnwHbqVaIJTkmYXzc-4" value="Node" style="rounded=1;whiteSpace=wrap;html=1;fillColor=#f5f5f5;fontColor=#333333;strokeColor=#666666;fontFamily=Comic Sans MS;fontStyle=0;fontSize=17;" vertex="1" parent="1">
          <mxGeometry x="327" y="425" width="85" height="50" as="geometry" />
        </mxCell>
        <mxCell id="IjkHnwHbqVaIJTkmYXzc-5" value="head" style="text;html=1;align=center;verticalAlign=middle;whiteSpace=wrap;rounded=0;fontFamily=Comic Sans MS;fontStyle=0;fontSize=16;" vertex="1" parent="1">
          <mxGeometry x="340" y="395" width="60" height="30" as="geometry" />
        </mxCell>
        <mxCell id="IjkHnwHbqVaIJTkmYXzc-6" value="tail" style="text;html=1;align=center;verticalAlign=middle;whiteSpace=wrap;rounded=0;fontFamily=Comic Sans MS;fontStyle=0;fontSize=16;" vertex="1" parent="1">
          <mxGeometry x="727" y="395" width="60" height="30" as="geometry" />
        </mxCell>
        <mxCell id="IjkHnwHbqVaIJTkmYXzc-14" value="。。。。。。" style="text;html=1;align=center;verticalAlign=middle;whiteSpace=wrap;rounded=0;fontFamily=Comic Sans MS;fontStyle=0;fontSize=17;" vertex="1" parent="1">
          <mxGeometry x="806" y="435" width="60" height="30" as="geometry" />
        </mxCell>
        <mxCell id="IjkHnwHbqVaIJTkmYXzc-15" value="Sync Queue" style="text;html=1;align=center;verticalAlign=middle;whiteSpace=wrap;rounded=0;fontFamily=Comic Sans MS;fontStyle=0;fontSize=17;" vertex="1" parent="1">
          <mxGeometry x="164" y="435" width="99" height="30" as="geometry" />
        </mxCell>
        <mxCell id="IjkHnwHbqVaIJTkmYXzc-33" style="edgeStyle=orthogonalEdgeStyle;rounded=0;orthogonalLoop=1;jettySize=auto;html=1;entryX=0;entryY=0.5;entryDx=0;entryDy=0;strokeColor=#808080;fontFamily=Comic Sans MS;fontStyle=0;fontSize=17;" edge="1" parent="1" source="IjkHnwHbqVaIJTkmYXzc-30" target="IjkHnwHbqVaIJTkmYXzc-31">
          <mxGeometry relative="1" as="geometry" />
        </mxCell>
        <mxCell id="IjkHnwHbqVaIJTkmYXzc-55" style="edgeStyle=orthogonalEdgeStyle;rounded=0;orthogonalLoop=1;jettySize=auto;html=1;exitX=0.5;exitY=0;exitDx=0;exitDy=0;entryX=1;entryY=0.75;entryDx=0;entryDy=0;strokeColor=#EA6B66;fontFamily=Comic Sans MS;fontStyle=0;strokeWidth=2;fontSize=17;" edge="1" parent="1" source="IjkHnwHbqVaIJTkmYXzc-30" target="IjkHnwHbqVaIJTkmYXzc-14">
          <mxGeometry relative="1" as="geometry" />
        </mxCell>
        <mxCell id="IjkHnwHbqVaIJTkmYXzc-57" value="signal()" style="edgeLabel;html=1;align=center;verticalAlign=middle;resizable=0;points=[];fontStyle=0;fontFamily=Comic Sans MS;fontSize=17;" vertex="1" connectable="0" parent="IjkHnwHbqVaIJTkmYXzc-55">
          <mxGeometry x="0.0679" y="-2" relative="1" as="geometry">
            <mxPoint x="1" y="-4" as="offset" />
          </mxGeometry>
        </mxCell>
        <mxCell id="IjkHnwHbqVaIJTkmYXzc-30" value="Node" style="rounded=1;whiteSpace=wrap;html=1;fillColor=#fff2cc;strokeColor=#d6b656;fontFamily=Comic Sans MS;fontStyle=0;fontSize=17;" vertex="1" parent="1">
          <mxGeometry x="327.5" y="630" width="85" height="50" as="geometry" />
        </mxCell>
        <mxCell id="IjkHnwHbqVaIJTkmYXzc-34" style="edgeStyle=orthogonalEdgeStyle;rounded=0;orthogonalLoop=1;jettySize=auto;html=1;entryX=0;entryY=0.5;entryDx=0;entryDy=0;strokeColor=#808080;fontFamily=Comic Sans MS;fontStyle=0;fontSize=17;" edge="1" parent="1" source="IjkHnwHbqVaIJTkmYXzc-31" target="IjkHnwHbqVaIJTkmYXzc-32">
          <mxGeometry relative="1" as="geometry" />
        </mxCell>
        <mxCell id="IjkHnwHbqVaIJTkmYXzc-31" value="Node" style="rounded=1;whiteSpace=wrap;html=1;fillColor=#fff2cc;strokeColor=#d6b656;fontFamily=Comic Sans MS;fontStyle=0;fontSize=17;" vertex="1" parent="1">
          <mxGeometry x="450" y="630" width="85" height="50" as="geometry" />
        </mxCell>
        <mxCell id="IjkHnwHbqVaIJTkmYXzc-32" value="Node" style="rounded=1;whiteSpace=wrap;html=1;fillColor=#fff2cc;strokeColor=#d6b656;fontFamily=Comic Sans MS;fontStyle=0;fontSize=17;" vertex="1" parent="1">
          <mxGeometry x="573" y="630" width="85" height="50" as="geometry" />
        </mxCell>
        <mxCell id="IjkHnwHbqVaIJTkmYXzc-35" value="。。。。。。" style="text;html=1;align=center;verticalAlign=middle;whiteSpace=wrap;rounded=0;fontFamily=Comic Sans MS;fontStyle=0;fontSize=17;" vertex="1" parent="1">
          <mxGeometry x="667" y="640" width="60" height="30" as="geometry" />
        </mxCell>
        <mxCell id="IjkHnwHbqVaIJTkmYXzc-39" value="firstWaiter" style="text;html=1;align=center;verticalAlign=middle;whiteSpace=wrap;rounded=0;fontFamily=Comic Sans MS;fontStyle=0;fontSize=16;" vertex="1" parent="1">
          <mxGeometry x="340" y="683" width="60" height="30" as="geometry" />
        </mxCell>
        <mxCell id="IjkHnwHbqVaIJTkmYXzc-42" value="lastWaiter" style="text;html=1;align=center;verticalAlign=middle;whiteSpace=wrap;rounded=0;fontFamily=Comic Sans MS;fontStyle=0;fontSize=16;" vertex="1" parent="1">
          <mxGeometry x="588" y="683" width="60" height="30" as="geometry" />
        </mxCell>
        <mxCell id="IjkHnwHbqVaIJTkmYXzc-43" value="" style="rounded=0;whiteSpace=wrap;html=1;dashed=1;fontFamily=Comic Sans MS;fontStyle=0;fillColor=#f9f7ed;strokeColor=#36393d;fontSize=17;" vertex="1" parent="1">
          <mxGeometry x="295.5" y="745.97" width="445" height="128" as="geometry" />
        </mxCell>
        <mxCell id="IjkHnwHbqVaIJTkmYXzc-44" style="edgeStyle=orthogonalEdgeStyle;rounded=0;orthogonalLoop=1;jettySize=auto;html=1;entryX=0;entryY=0.5;entryDx=0;entryDy=0;strokeColor=#808080;fontFamily=Comic Sans MS;fontStyle=0;fontSize=17;" edge="1" source="IjkHnwHbqVaIJTkmYXzc-45" target="IjkHnwHbqVaIJTkmYXzc-47" parent="1">
          <mxGeometry relative="1" as="geometry" />
        </mxCell>
        <mxCell id="IjkHnwHbqVaIJTkmYXzc-56" style="edgeStyle=orthogonalEdgeStyle;rounded=0;orthogonalLoop=1;jettySize=auto;html=1;exitX=0.25;exitY=0;exitDx=0;exitDy=0;entryX=1;entryY=0.25;entryDx=0;entryDy=0;strokeColor=#EA6B66;fontFamily=Comic Sans MS;fontStyle=0;strokeWidth=2;fontSize=17;" edge="1" parent="1" source="IjkHnwHbqVaIJTkmYXzc-45" target="IjkHnwHbqVaIJTkmYXzc-14">
          <mxGeometry relative="1" as="geometry">
            <Array as="points">
              <mxPoint x="349" y="791" />
              <mxPoint x="349" y="731" />
              <mxPoint x="924" y="731" />
              <mxPoint x="924" y="443" />
            </Array>
          </mxGeometry>
        </mxCell>
        <mxCell id="IjkHnwHbqVaIJTkmYXzc-58" value="signal()" style="edgeLabel;html=1;align=center;verticalAlign=middle;resizable=0;points=[];fontStyle=0;fontFamily=Comic Sans MS;fontSize=17;" vertex="1" connectable="0" parent="IjkHnwHbqVaIJTkmYXzc-56">
          <mxGeometry x="0.0291" y="-1" relative="1" as="geometry">
            <mxPoint x="1" y="-3" as="offset" />
          </mxGeometry>
        </mxCell>
        <mxCell id="IjkHnwHbqVaIJTkmYXzc-45" value="Node" style="rounded=1;whiteSpace=wrap;html=1;fillColor=#fff2cc;strokeColor=#d6b656;fontFamily=Comic Sans MS;fontStyle=0;fontSize=17;" vertex="1" parent="1">
          <mxGeometry x="330" y="790.97" width="85" height="50" as="geometry" />
        </mxCell>
        <mxCell id="IjkHnwHbqVaIJTkmYXzc-46" style="edgeStyle=orthogonalEdgeStyle;rounded=0;orthogonalLoop=1;jettySize=auto;html=1;entryX=0;entryY=0.5;entryDx=0;entryDy=0;strokeColor=#808080;fontFamily=Comic Sans MS;fontStyle=0;fontSize=17;" edge="1" source="IjkHnwHbqVaIJTkmYXzc-47" target="IjkHnwHbqVaIJTkmYXzc-48" parent="1">
          <mxGeometry relative="1" as="geometry" />
        </mxCell>
        <mxCell id="IjkHnwHbqVaIJTkmYXzc-47" value="Node" style="rounded=1;whiteSpace=wrap;html=1;fillColor=#fff2cc;strokeColor=#d6b656;fontFamily=Comic Sans MS;fontStyle=0;fontSize=17;" vertex="1" parent="1">
          <mxGeometry x="452.5" y="790.97" width="85" height="50" as="geometry" />
        </mxCell>
        <mxCell id="IjkHnwHbqVaIJTkmYXzc-48" value="Node" style="rounded=1;whiteSpace=wrap;html=1;fillColor=#fff2cc;strokeColor=#d6b656;fontFamily=Comic Sans MS;fontStyle=0;fontSize=17;" vertex="1" parent="1">
          <mxGeometry x="575.5" y="790.97" width="85" height="50" as="geometry" />
        </mxCell>
        <mxCell id="IjkHnwHbqVaIJTkmYXzc-49" value="。。。。。。" style="text;html=1;align=center;verticalAlign=middle;whiteSpace=wrap;rounded=0;fontFamily=Comic Sans MS;fontStyle=0;fontSize=17;" vertex="1" parent="1">
          <mxGeometry x="669.5" y="800.97" width="60" height="30" as="geometry" />
        </mxCell>
        <mxCell id="IjkHnwHbqVaIJTkmYXzc-50" value="firstWaiter" style="text;html=1;align=center;verticalAlign=middle;whiteSpace=wrap;rounded=0;fontFamily=Comic Sans MS;fontStyle=0;fontSize=16;" vertex="1" parent="1">
          <mxGeometry x="342" y="843.97" width="60" height="30" as="geometry" />
        </mxCell>
        <mxCell id="IjkHnwHbqVaIJTkmYXzc-51" value="lastWaiter" style="text;html=1;align=center;verticalAlign=middle;whiteSpace=wrap;rounded=0;fontFamily=Comic Sans MS;fontStyle=0;fontSize=16;" vertex="1" parent="1">
          <mxGeometry x="588" y="843.97" width="60" height="30" as="geometry" />
        </mxCell>
        <mxCell id="IjkHnwHbqVaIJTkmYXzc-52" value="Condition Queue1" style="text;html=1;align=center;verticalAlign=middle;whiteSpace=wrap;rounded=0;fontFamily=Comic Sans MS;fontStyle=0;fontSize=17;" vertex="1" parent="1">
          <mxGeometry x="126" y="640" width="147.5" height="30" as="geometry" />
        </mxCell>
        <mxCell id="IjkHnwHbqVaIJTkmYXzc-53" value="Condition Queue2" style="text;html=1;align=center;verticalAlign=middle;whiteSpace=wrap;rounded=0;fontFamily=Comic Sans MS;fontStyle=0;fontSize=17;" vertex="1" parent="1">
          <mxGeometry x="122" y="794.97" width="156.5" height="30" as="geometry" />
        </mxCell>
      </root>
    </mxGraphModel>
  </diagram>
  <diagram id="uaKsqWBUpvfyDU5-5M00" name="JMM">
    <mxGraphModel dx="1185" dy="674" grid="0" gridSize="10" guides="1" tooltips="1" connect="1" arrows="1" fold="1" page="1" pageScale="1" pageWidth="1169" pageHeight="1654" math="0" shadow="0">
      <root>
        <mxCell id="0" />
        <mxCell id="1" parent="0" />
        <mxCell id="-hRw_B743NcNmiiJ7C-9-11" style="edgeStyle=orthogonalEdgeStyle;rounded=0;hachureGap=4;orthogonalLoop=1;jettySize=auto;html=1;exitX=0.5;exitY=1;exitDx=0;exitDy=0;entryX=0.5;entryY=0;entryDx=0;entryDy=0;fontFamily=Architects Daughter;fontSource=https%3A%2F%2Ffonts.googleapis.com%2Fcss%3Ffamily%3DArchitects%2BDaughter;endArrow=openThin;endFill=0;dashed=1;" edge="1" parent="1" source="-hRw_B743NcNmiiJ7C-9-1" target="-hRw_B743NcNmiiJ7C-9-6">
          <mxGeometry relative="1" as="geometry" />
        </mxCell>
        <mxCell id="-hRw_B743NcNmiiJ7C-9-1" value="CPU" style="rounded=1;whiteSpace=wrap;html=1;fontFamily=Comic Sans MS;fillColor=#f8cecc;strokeColor=#b85450;" vertex="1" parent="1">
          <mxGeometry x="169" y="213" width="73" height="57" as="geometry" />
        </mxCell>
        <mxCell id="-hRw_B743NcNmiiJ7C-9-12" style="edgeStyle=orthogonalEdgeStyle;rounded=0;orthogonalLoop=1;jettySize=auto;html=1;exitX=0.5;exitY=1;exitDx=0;exitDy=0;entryX=0.5;entryY=0;entryDx=0;entryDy=0;endArrow=openThin;endFill=0;dashed=1;" edge="1" parent="1" source="-hRw_B743NcNmiiJ7C-9-2" target="-hRw_B743NcNmiiJ7C-9-7">
          <mxGeometry relative="1" as="geometry" />
        </mxCell>
        <mxCell id="-hRw_B743NcNmiiJ7C-9-2" value="CPU" style="rounded=1;whiteSpace=wrap;html=1;fontFamily=Comic Sans MS;fillColor=#f8cecc;strokeColor=#b85450;" vertex="1" parent="1">
          <mxGeometry x="267" y="213" width="73" height="57" as="geometry" />
        </mxCell>
        <mxCell id="-hRw_B743NcNmiiJ7C-9-14" style="edgeStyle=orthogonalEdgeStyle;rounded=0;orthogonalLoop=1;jettySize=auto;html=1;exitX=0.5;exitY=1;exitDx=0;exitDy=0;entryX=0.5;entryY=0;entryDx=0;entryDy=0;endArrow=openThin;endFill=0;dashed=1;" edge="1" parent="1" source="-hRw_B743NcNmiiJ7C-9-3" target="-hRw_B743NcNmiiJ7C-9-8">
          <mxGeometry relative="1" as="geometry" />
        </mxCell>
        <mxCell id="-hRw_B743NcNmiiJ7C-9-3" value="CPU" style="rounded=1;whiteSpace=wrap;html=1;fontFamily=Comic Sans MS;fillColor=#f8cecc;strokeColor=#b85450;" vertex="1" parent="1">
          <mxGeometry x="365" y="213" width="73" height="57" as="geometry" />
        </mxCell>
        <mxCell id="-hRw_B743NcNmiiJ7C-9-15" style="edgeStyle=orthogonalEdgeStyle;rounded=0;orthogonalLoop=1;jettySize=auto;html=1;exitX=0.5;exitY=1;exitDx=0;exitDy=0;entryX=0.5;entryY=0;entryDx=0;entryDy=0;endArrow=openThin;endFill=0;dashed=1;" edge="1" parent="1" source="-hRw_B743NcNmiiJ7C-9-4" target="-hRw_B743NcNmiiJ7C-9-9">
          <mxGeometry relative="1" as="geometry" />
        </mxCell>
        <mxCell id="-hRw_B743NcNmiiJ7C-9-4" value="CPU" style="rounded=1;whiteSpace=wrap;html=1;fontFamily=Comic Sans MS;fillColor=#f8cecc;strokeColor=#b85450;" vertex="1" parent="1">
          <mxGeometry x="463" y="213" width="73" height="57" as="geometry" />
        </mxCell>
        <mxCell id="-hRw_B743NcNmiiJ7C-9-16" style="edgeStyle=orthogonalEdgeStyle;rounded=0;orthogonalLoop=1;jettySize=auto;html=1;exitX=0.5;exitY=1;exitDx=0;exitDy=0;entryX=0.5;entryY=0;entryDx=0;entryDy=0;endArrow=openThin;endFill=0;dashed=1;" edge="1" parent="1" source="-hRw_B743NcNmiiJ7C-9-6" target="-hRw_B743NcNmiiJ7C-9-10">
          <mxGeometry relative="1" as="geometry" />
        </mxCell>
        <mxCell id="-hRw_B743NcNmiiJ7C-9-6" value="Cache" style="rounded=0;whiteSpace=wrap;html=1;fontFamily=Comic Sans MS;fillColor=#fff2cc;strokeColor=#d6b656;" vertex="1" parent="1">
          <mxGeometry x="169" y="288" width="74" height="21" as="geometry" />
        </mxCell>
        <mxCell id="-hRw_B743NcNmiiJ7C-9-17" style="edgeStyle=orthogonalEdgeStyle;rounded=0;orthogonalLoop=1;jettySize=auto;html=1;exitX=0.5;exitY=1;exitDx=0;exitDy=0;endArrow=openThin;endFill=0;dashed=1;" edge="1" parent="1" source="-hRw_B743NcNmiiJ7C-9-7" target="-hRw_B743NcNmiiJ7C-9-10">
          <mxGeometry relative="1" as="geometry" />
        </mxCell>
        <mxCell id="-hRw_B743NcNmiiJ7C-9-7" value="Cache" style="rounded=0;whiteSpace=wrap;html=1;fontFamily=Comic Sans MS;fillColor=#fff2cc;strokeColor=#d6b656;" vertex="1" parent="1">
          <mxGeometry x="266.5" y="288" width="74" height="21" as="geometry" />
        </mxCell>
        <mxCell id="-hRw_B743NcNmiiJ7C-9-18" style="edgeStyle=orthogonalEdgeStyle;rounded=0;orthogonalLoop=1;jettySize=auto;html=1;exitX=0.5;exitY=1;exitDx=0;exitDy=0;endArrow=openThin;endFill=0;dashed=1;" edge="1" parent="1" source="-hRw_B743NcNmiiJ7C-9-8" target="-hRw_B743NcNmiiJ7C-9-10">
          <mxGeometry relative="1" as="geometry" />
        </mxCell>
        <mxCell id="-hRw_B743NcNmiiJ7C-9-8" value="Cache" style="rounded=0;whiteSpace=wrap;html=1;fontFamily=Comic Sans MS;fillColor=#fff2cc;strokeColor=#d6b656;" vertex="1" parent="1">
          <mxGeometry x="364.5" y="288" width="74" height="21" as="geometry" />
        </mxCell>
        <mxCell id="-hRw_B743NcNmiiJ7C-9-19" style="edgeStyle=orthogonalEdgeStyle;rounded=0;orthogonalLoop=1;jettySize=auto;html=1;endArrow=openThin;endFill=0;dashed=1;" edge="1" parent="1" source="-hRw_B743NcNmiiJ7C-9-9" target="-hRw_B743NcNmiiJ7C-9-10">
          <mxGeometry relative="1" as="geometry" />
        </mxCell>
        <mxCell id="-hRw_B743NcNmiiJ7C-9-9" value="Cache" style="rounded=0;whiteSpace=wrap;html=1;fontFamily=Comic Sans MS;fillColor=#fff2cc;strokeColor=#d6b656;" vertex="1" parent="1">
          <mxGeometry x="462.5" y="288" width="74" height="21" as="geometry" />
        </mxCell>
        <mxCell id="-hRw_B743NcNmiiJ7C-9-10" value="RAM" style="rounded=0;whiteSpace=wrap;html=1;fontFamily=Comic Sans MS;fillColor=#dae8fc;strokeColor=#6c8ebf;" vertex="1" parent="1">
          <mxGeometry x="167" y="399" width="369" height="35" as="geometry" />
        </mxCell>
        <mxCell id="-hRw_B743NcNmiiJ7C-9-20" value="缓存一致性协议" style="rounded=0;whiteSpace=wrap;html=1;fontFamily=Comic Sans MS;fillColor=#f5f5f5;strokeColor=#666666;fontColor=#333333;dashed=1;" vertex="1" parent="1">
          <mxGeometry x="167.5" y="364" width="369" height="24" as="geometry" />
        </mxCell>
        <mxCell id="-hRw_B743NcNmiiJ7C-9-21" value="Java线程" style="rounded=1;whiteSpace=wrap;html=1;fillColor=#ffe6cc;strokeColor=#d79b00;" vertex="1" parent="1">
          <mxGeometry x="687" y="240" width="79" height="35" as="geometry" />
        </mxCell>
        <mxCell id="-hRw_B743NcNmiiJ7C-9-22" value="Java线程" style="rounded=1;whiteSpace=wrap;html=1;fillColor=#ffe6cc;strokeColor=#d79b00;" vertex="1" parent="1">
          <mxGeometry x="687" y="296" width="79" height="35" as="geometry" />
        </mxCell>
        <mxCell id="-hRw_B743NcNmiiJ7C-9-23" value="Java线程" style="rounded=1;whiteSpace=wrap;html=1;fillColor=#ffe6cc;strokeColor=#d79b00;" vertex="1" parent="1">
          <mxGeometry x="687" y="353" width="79" height="35" as="geometry" />
        </mxCell>
        <mxCell id="-hRw_B743NcNmiiJ7C-9-24" value="工作内存" style="rounded=1;whiteSpace=wrap;html=1;fillColor=#d5e8d4;strokeColor=#82b366;" vertex="1" parent="1">
          <mxGeometry x="800" y="240" width="79" height="35" as="geometry" />
        </mxCell>
        <mxCell id="-hRw_B743NcNmiiJ7C-9-25" value="工作内存" style="rounded=1;whiteSpace=wrap;html=1;fillColor=#d5e8d4;strokeColor=#82b366;" vertex="1" parent="1">
          <mxGeometry x="800" y="296" width="79" height="35" as="geometry" />
        </mxCell>
        <mxCell id="-hRw_B743NcNmiiJ7C-9-26" value="工作内存" style="rounded=1;whiteSpace=wrap;html=1;fillColor=#d5e8d4;strokeColor=#82b366;" vertex="1" parent="1">
          <mxGeometry x="800" y="353" width="79" height="35" as="geometry" />
        </mxCell>
        <mxCell id="-hRw_B743NcNmiiJ7C-9-27" value="存取操作" style="rounded=0;whiteSpace=wrap;html=1;dashed=1;fillColor=#f5f5f5;fontColor=#333333;strokeColor=#666666;" vertex="1" parent="1">
          <mxGeometry x="928" y="240" width="31" height="143" as="geometry" />
        </mxCell>
        <mxCell id="-hRw_B743NcNmiiJ7C-9-28" value="主内存" style="shape=cylinder3;whiteSpace=wrap;html=1;boundedLbl=1;backgroundOutline=1;size=15;fillColor=#dae8fc;strokeColor=#6c8ebf;" vertex="1" parent="1">
          <mxGeometry x="1001" y="240" width="55" height="145" as="geometry" />
        </mxCell>
        <mxCell id="-hRw_B743NcNmiiJ7C-9-30" value="" style="shape=doubleArrow;whiteSpace=wrap;html=1;" vertex="1" parent="1">
          <mxGeometry x="765" y="252.5" width="35" height="10" as="geometry" />
        </mxCell>
        <mxCell id="-hRw_B743NcNmiiJ7C-9-33" value="" style="shape=doubleArrow;whiteSpace=wrap;html=1;" vertex="1" parent="1">
          <mxGeometry x="766" y="306.5" width="35" height="10" as="geometry" />
        </mxCell>
        <mxCell id="-hRw_B743NcNmiiJ7C-9-34" value="" style="shape=doubleArrow;whiteSpace=wrap;html=1;" vertex="1" parent="1">
          <mxGeometry x="765" y="364" width="35" height="10" as="geometry" />
        </mxCell>
        <mxCell id="-hRw_B743NcNmiiJ7C-9-36" value="" style="shape=doubleArrow;whiteSpace=wrap;html=1;" vertex="1" parent="1">
          <mxGeometry x="879" y="252.5" width="47" height="10" as="geometry" />
        </mxCell>
        <mxCell id="-hRw_B743NcNmiiJ7C-9-38" value="" style="shape=doubleArrow;whiteSpace=wrap;html=1;" vertex="1" parent="1">
          <mxGeometry x="879" y="306.5" width="47" height="10" as="geometry" />
        </mxCell>
        <mxCell id="-hRw_B743NcNmiiJ7C-9-39" value="" style="shape=doubleArrow;whiteSpace=wrap;html=1;" vertex="1" parent="1">
          <mxGeometry x="879" y="364" width="47" height="10" as="geometry" />
        </mxCell>
        <mxCell id="-hRw_B743NcNmiiJ7C-9-40" value="" style="shape=doubleArrow;whiteSpace=wrap;html=1;" vertex="1" parent="1">
          <mxGeometry x="961" y="306.5" width="40" height="10" as="geometry" />
        </mxCell>
      </root>
    </mxGraphModel>
  </diagram>
</mxfile>
